<svg width="564" height="688" viewBox="0 0 564 688" fill="none" xmlns="http://www.w3.org/2000/svg">
<path d="M107.503 98.788C107.725 98.4194 108.283 98.5802 108.283 99.013V104.793C108.283 105.03 108.472 105.223 108.705 105.223H113.517C113.847 105.223 114.049 105.591 113.876 105.877L107.377 115.091C107.155 115.46 106.597 115.299 106.597 114.866V109.086C106.597 108.849 106.408 108.657 106.175 108.657H101.363C101.033 108.657 100.831 108.288 101.004 108.002L107.503 98.788Z" stroke="white" stroke-width="1.85702" stroke-linecap="round" stroke-linejoin="round"/>
<path d="M165.627 106.94C167.484 104.191 165.627 100.44 164.698 99.5115C164.698 102.332 163.052 103.914 161.913 105.083C160.774 106.252 160.056 108.091 160.056 109.725C160.056 111.203 160.643 112.62 161.687 113.664C162.732 114.709 164.149 115.296 165.627 115.296C167.104 115.296 168.521 114.709 169.566 113.664C170.611 112.62 171.198 111.203 171.198 109.725C171.198 108.303 170.217 106.067 169.341 105.083C167.682 107.868 166.749 107.868 165.627 106.94Z" stroke="white" stroke-width="1.85702" stroke-linecap="round" stroke-linejoin="round"/>
<path d="M217.313 115.296C217.778 111.118 219.635 107.868 223.813 106.011M221.028 112.511C226.801 112.511 230.777 109.458 231.241 101.368V99.5115H227.514C219.158 99.5115 216.385 103.226 216.372 107.868C216.372 108.797 216.372 110.654 218.229 112.511H221.028Z" stroke="white" stroke-width="1.85702" stroke-linecap="round" stroke-linejoin="round"/>
<path d="M273.643 106.94H274.571M281.999 98.583V99.5115M289.427 106.94H290.356M281.999 114.368V115.296M276.057 100.997L276.707 101.647M287.942 100.997L287.292 101.647M287.292 112.232L287.942 112.882M276.707 112.232L276.057 112.882M278.285 106.94C278.285 107.925 278.676 108.869 279.373 109.566C280.069 110.262 281.014 110.654 281.999 110.654C282.984 110.654 283.929 110.262 284.625 109.566C285.322 108.869 285.713 107.925 285.713 106.94C285.713 105.955 285.322 105.01 284.625 104.313C283.929 103.617 282.984 103.226 281.999 103.226C281.014 103.226 280.069 103.617 279.373 104.313C278.676 105.01 278.285 105.955 278.285 106.94Z" stroke="white" stroke-width="1.85702" stroke-linecap="round" stroke-linejoin="round"/>
<g clip-path="url(#clip0_224_5217)">
<path d="M345.097 104.68L340.574 114.453M334.497 100.469C334.84 99.747 335.719 99.4612 336.421 99.843L344.609 104.297C344.704 104.348 344.792 104.41 344.872 104.482L348.574 107.795C349.259 108.408 349.173 109.506 348.4 110.004L341.742 114.294C341.315 114.568 340.773 114.589 340.326 114.349L331.602 109.642C330.949 109.29 330.687 108.488 331.005 107.819L334.497 100.469Z" stroke="white" stroke-width="1.85702" stroke-linecap="round" stroke-linejoin="round"/>
</g>
<path d="M390.945 105.082H405.801M396.516 101.368L395.587 108.796M400.23 101.368L401.158 108.796M398.373 108.796V112.511M393.73 112.511H403.015M391.205 108.796H405.541C405.682 108.796 405.821 108.764 405.948 108.702C406.075 108.64 406.186 108.55 406.273 108.439C406.36 108.328 406.42 108.198 406.449 108.06C406.479 107.922 406.476 107.779 406.442 107.642L405.049 102.071C404.999 101.871 404.883 101.692 404.719 101.565C404.556 101.438 404.355 101.368 404.148 101.368H392.598C392.391 101.368 392.19 101.438 392.026 101.565C391.863 101.692 391.747 101.871 391.697 102.071L390.304 107.642C390.27 107.779 390.267 107.922 390.296 108.06C390.326 108.198 390.386 108.328 390.473 108.439C390.56 108.55 390.671 108.64 390.798 108.702C390.924 108.764 391.064 108.796 391.205 108.796Z" stroke="white" stroke-width="1.85702" stroke-linecap="round" stroke-linejoin="round"/>
<path d="M451.916 105.082V108.796M454.702 105.082V108.796M450.988 102.297H461.201C461.694 102.297 462.166 102.493 462.515 102.841C462.863 103.189 463.058 103.661 463.058 104.154V104.618C463.058 104.741 463.107 104.859 463.194 104.946C463.282 105.033 463.4 105.082 463.523 105.082C463.646 105.082 463.764 105.131 463.851 105.218C463.938 105.305 463.987 105.424 463.987 105.547V108.332C463.987 108.455 463.938 108.573 463.851 108.66C463.764 108.748 463.646 108.796 463.523 108.796C463.4 108.796 463.282 108.845 463.194 108.932C463.107 109.019 463.058 109.138 463.058 109.261V109.725C463.058 110.217 462.863 110.69 462.515 111.038C462.166 111.386 461.694 111.582 461.201 111.582H450.988C450.495 111.582 450.023 111.386 449.675 111.038C449.327 110.69 449.131 110.217 449.131 109.725V104.154C449.131 103.661 449.327 103.189 449.675 102.841C450.023 102.493 450.495 102.297 450.988 102.297Z" stroke="white" stroke-width="1.85702" stroke-linecap="round" stroke-linejoin="round"/>
<g clip-path="url(#clip1_224_5217)">
<rect x="96.2979" y="150.082" width="371.404" height="51.9965" rx="11.14" fill="#0F0F0F"/>
<g clip-path="url(#clip2_224_5217)">
<rect x="96.2979" y="150.082" width="371.404" height="51.9965" rx="11.1421" fill="#0F0F0F"/>
<rect width="51.9965" height="51.9965" transform="translate(96.2979 150.082)" fill="#C7125C" fill-opacity="0.05"/>
<path d="M124.153 171.437H126.939V174.223M117.653 177.937V180.723H120.439M113.939 169.58C113.939 169.088 114.135 168.616 114.483 168.267C114.832 167.919 115.304 167.723 115.796 167.723H128.796C129.288 167.723 129.76 167.919 130.109 168.267C130.457 168.616 130.653 169.088 130.653 169.58V182.58C130.653 183.072 130.457 183.544 130.109 183.893C129.76 184.241 129.288 184.437 128.796 184.437H115.796C115.304 184.437 114.832 184.241 114.483 183.893C114.135 183.544 113.939 183.072 113.939 182.58V169.58Z" stroke="#C7125C" stroke-width="1.85702" stroke-linecap="round" stroke-linejoin="round"/>
<g clip-path="url(#clip3_224_5217)">
<path d="M163.345 159.85H164.567L166.608 166.012L169.013 159.746L171.431 166.012L173.472 159.85H174.694L171.522 169.184L169.013 162.671L166.517 169.184L163.345 159.85ZM177.93 168.131C178.26 168.131 178.558 168.075 178.827 167.962C179.104 167.841 179.338 167.676 179.529 167.468C179.728 167.26 179.88 167.017 179.984 166.74C180.088 166.454 180.14 166.151 180.14 165.83C180.14 165.509 180.088 165.21 179.984 164.933C179.88 164.647 179.728 164.4 179.529 164.192C179.338 163.984 179.104 163.824 178.827 163.711C178.558 163.59 178.26 163.529 177.93 163.529C177.601 163.529 177.298 163.59 177.02 163.711C176.752 163.824 176.518 163.984 176.318 164.192C176.128 164.4 175.976 164.647 175.863 164.933C175.759 165.21 175.707 165.509 175.707 165.83C175.707 166.151 175.759 166.454 175.863 166.74C175.976 167.017 176.128 167.26 176.318 167.468C176.518 167.676 176.752 167.841 177.02 167.962C177.298 168.075 177.601 168.131 177.93 168.131ZM177.93 169.184C177.436 169.184 176.981 169.097 176.565 168.924C176.158 168.751 175.803 168.512 175.499 168.209C175.205 167.906 174.971 167.55 174.797 167.143C174.633 166.736 174.55 166.298 174.55 165.83C174.55 165.362 174.633 164.924 174.797 164.517C174.971 164.11 175.205 163.755 175.499 163.451C175.803 163.148 176.158 162.91 176.565 162.736C176.981 162.563 177.436 162.476 177.93 162.476C178.416 162.476 178.862 162.563 179.269 162.736C179.685 162.91 180.04 163.148 180.335 163.451C180.638 163.755 180.872 164.11 181.037 164.517C181.21 164.924 181.297 165.362 181.297 165.83C181.297 166.298 181.21 166.736 181.037 167.143C180.872 167.55 180.638 167.906 180.335 168.209C180.04 168.512 179.685 168.751 179.269 168.924C178.862 169.097 178.416 169.184 177.93 169.184ZM182.863 159.85H183.981V163.321C184.232 163.009 184.536 162.793 184.891 162.671C185.246 162.541 185.614 162.476 185.996 162.476C186.36 162.476 186.693 162.541 186.997 162.671C187.309 162.793 187.573 162.966 187.79 163.191C188.015 163.417 188.188 163.694 188.31 164.023C188.44 164.352 188.505 164.716 188.505 165.115V169.08H187.387V165.18C187.387 164.703 187.239 164.309 186.945 163.997C186.659 163.685 186.26 163.529 185.749 163.529C185.289 163.529 184.908 163.651 184.605 163.893C184.31 164.127 184.102 164.456 183.981 164.881V169.08H182.863V159.85ZM190.378 162.58H191.496V163.321C191.747 163.009 192.051 162.793 192.406 162.671C192.761 162.541 193.13 162.476 193.511 162.476C193.875 162.476 194.208 162.541 194.512 162.671C194.824 162.793 195.088 162.966 195.305 163.191C195.53 163.417 195.703 163.694 195.825 164.023C195.955 164.352 196.02 164.716 196.02 165.115V169.08H194.902V165.18C194.902 164.703 194.754 164.309 194.46 163.997C194.174 163.685 193.775 163.529 193.264 163.529C192.805 163.529 192.423 163.651 192.12 163.893C191.825 164.127 191.617 164.456 191.496 164.881V169.08H190.378V162.58ZM197.178 162.58H198.27C198.123 162.433 198.006 162.264 197.919 162.073C197.833 161.874 197.789 161.662 197.789 161.436C197.789 161.211 197.833 161.003 197.919 160.812C198.015 160.613 198.145 160.444 198.309 160.305C198.474 160.158 198.673 160.045 198.907 159.967C199.141 159.889 199.401 159.85 199.687 159.85H201.221V160.864H199.869C199.592 160.864 199.358 160.934 199.167 161.072C198.976 161.202 198.881 161.406 198.881 161.683C198.881 161.969 198.976 162.186 199.167 162.333C199.358 162.481 199.561 162.563 199.778 162.58H201.221V163.594H199.414V169.08H198.296V163.594H197.178V162.58ZM202.539 159.85H203.657V169.08H202.539V159.85ZM210.602 168.43C210.325 168.681 210.008 168.872 209.653 169.002C209.306 169.123 208.934 169.184 208.535 169.184C208.058 169.184 207.616 169.097 207.209 168.924C206.802 168.751 206.451 168.517 206.156 168.222C205.862 167.919 205.632 167.563 205.467 167.156C205.303 166.74 205.22 166.298 205.22 165.83C205.22 165.362 205.303 164.924 205.467 164.517C205.632 164.101 205.862 163.746 206.156 163.451C206.451 163.148 206.802 162.91 207.209 162.736C207.616 162.563 208.058 162.476 208.535 162.476C208.934 162.476 209.306 162.541 209.653 162.671C210.008 162.793 210.325 162.979 210.602 163.23V162.58H211.72V169.08H210.602V168.43ZM208.561 168.131C209.029 168.131 209.436 168.031 209.783 167.832C210.138 167.633 210.411 167.381 210.602 167.078V164.582C210.411 164.279 210.138 164.028 209.783 163.828C209.436 163.629 209.029 163.529 208.561 163.529C208.24 163.529 207.946 163.59 207.677 163.711C207.417 163.824 207.187 163.984 206.988 164.192C206.797 164.4 206.646 164.647 206.533 164.933C206.429 165.21 206.377 165.509 206.377 165.83C206.377 166.151 206.429 166.454 206.533 166.74C206.646 167.017 206.797 167.26 206.988 167.468C207.187 167.676 207.417 167.841 207.677 167.962C207.946 168.075 208.24 168.131 208.561 168.131ZM207.326 161.657C207.118 161.657 206.936 161.584 206.78 161.436C206.624 161.289 206.546 161.103 206.546 160.877C206.546 160.661 206.624 160.479 206.78 160.331C206.936 160.184 207.118 160.11 207.326 160.11C207.551 160.11 207.738 160.184 207.885 160.331C208.041 160.479 208.119 160.661 208.119 160.877C208.119 161.103 208.041 161.289 207.885 161.436C207.738 161.584 207.551 161.657 207.326 161.657ZM210.251 161.657C210.034 161.657 209.848 161.584 209.692 161.436C209.545 161.289 209.471 161.103 209.471 160.877C209.471 160.661 209.545 160.479 209.692 160.331C209.848 160.184 210.034 160.11 210.251 160.11C210.476 160.11 210.663 160.184 210.81 160.331C210.957 160.479 211.031 160.661 211.031 160.877C211.031 161.103 210.957 161.289 210.81 161.436C210.663 161.584 210.476 161.657 210.251 161.657ZM216.622 169.184C216.137 169.184 215.69 169.097 215.283 168.924C214.876 168.751 214.525 168.512 214.23 168.209C213.936 167.906 213.702 167.55 213.528 167.143C213.364 166.736 213.281 166.298 213.281 165.83C213.281 165.362 213.364 164.924 213.528 164.517C213.702 164.11 213.936 163.755 214.23 163.451C214.525 163.148 214.876 162.91 215.283 162.736C215.69 162.563 216.137 162.476 216.622 162.476C217.168 162.476 217.645 162.576 218.052 162.775C218.468 162.966 218.819 163.209 219.105 163.503L218.39 164.283C218.182 164.075 217.931 163.898 217.636 163.75C217.35 163.603 217.012 163.529 216.622 163.529C216.301 163.529 216.007 163.59 215.738 163.711C215.478 163.824 215.248 163.984 215.049 164.192C214.858 164.4 214.707 164.647 214.594 164.933C214.49 165.21 214.438 165.509 214.438 165.83C214.438 166.151 214.49 166.454 214.594 166.74C214.707 167.017 214.858 167.26 215.049 167.468C215.248 167.676 215.478 167.841 215.738 167.962C216.007 168.075 216.301 168.131 216.622 168.131C217.012 168.131 217.35 168.057 217.636 167.91C217.931 167.763 218.182 167.585 218.39 167.377L219.105 168.157C218.819 168.452 218.468 168.699 218.052 168.898C217.645 169.089 217.168 169.184 216.622 169.184ZM220.591 159.85H221.709V163.321C221.96 163.009 222.263 162.793 222.619 162.671C222.974 162.541 223.342 162.476 223.724 162.476C224.088 162.476 224.421 162.541 224.725 162.671C225.037 162.793 225.301 162.966 225.518 163.191C225.743 163.417 225.916 163.694 226.038 164.023C226.168 164.352 226.233 164.716 226.233 165.115V169.08H225.115V165.18C225.115 164.703 224.967 164.309 224.673 163.997C224.387 163.685 223.988 163.529 223.477 163.529C223.017 163.529 222.636 163.651 222.333 163.893C222.038 164.127 221.83 164.456 221.709 164.881V169.08H220.591V159.85ZM231.005 169.184C230.52 169.184 230.073 169.097 229.666 168.924C229.259 168.751 228.908 168.512 228.613 168.209C228.318 167.906 228.084 167.55 227.911 167.143C227.746 166.736 227.664 166.298 227.664 165.83C227.664 165.362 227.746 164.924 227.911 164.517C228.084 164.101 228.318 163.746 228.613 163.451C228.908 163.148 229.25 162.91 229.64 162.736C230.039 162.563 230.468 162.476 230.927 162.476C231.377 162.476 231.793 162.559 232.175 162.723C232.565 162.879 232.898 163.113 233.176 163.425C233.462 163.729 233.683 164.105 233.839 164.556C234.003 165.007 234.09 165.522 234.099 166.103H228.821C228.847 166.389 228.921 166.658 229.042 166.909C229.163 167.152 229.319 167.364 229.51 167.546C229.701 167.728 229.922 167.871 230.173 167.975C230.433 168.079 230.71 168.131 231.005 168.131C231.421 168.131 231.789 168.053 232.11 167.897C232.43 167.741 232.695 167.559 232.903 167.351L233.618 168.131C233.34 168.426 232.976 168.677 232.526 168.885C232.084 169.084 231.577 169.184 231.005 169.184ZM230.862 163.503C230.385 163.503 229.965 163.651 229.601 163.945C229.237 164.24 228.994 164.634 228.873 165.128H232.838C232.76 164.591 232.534 164.183 232.162 163.906C231.789 163.629 231.356 163.495 230.862 163.503ZM239.456 160.838C239.23 160.838 239.04 160.765 238.884 160.617C238.728 160.461 238.65 160.271 238.65 160.045C238.65 159.829 238.728 159.642 238.884 159.486C239.04 159.33 239.23 159.252 239.456 159.252C239.681 159.252 239.867 159.33 240.015 159.486C240.162 159.642 240.236 159.829 240.236 160.045C240.236 160.271 240.162 160.461 240.015 160.617C239.867 160.765 239.681 160.838 239.456 160.838ZM238.884 162.58H240.002V169.08H238.884V162.58ZM242.006 162.58H243.124V163.321C243.376 163.009 243.679 162.793 244.034 162.671C244.39 162.541 244.758 162.476 245.139 162.476C245.503 162.476 245.837 162.541 246.14 162.671C246.452 162.793 246.716 162.966 246.933 163.191C247.158 163.417 247.332 163.694 247.453 164.023C247.583 164.352 247.648 164.716 247.648 165.115V169.08H246.53V165.18C246.53 164.703 246.383 164.309 246.088 163.997C245.802 163.685 245.404 163.529 244.892 163.529C244.433 163.529 244.052 163.651 243.748 163.893C243.454 164.127 243.246 164.456 243.124 164.881V169.08H242.006V162.58ZM261.181 165.18C261.181 164.703 261.051 164.309 260.791 163.997C260.531 163.685 260.167 163.529 259.699 163.529C259.292 163.529 258.954 163.646 258.685 163.88C258.417 164.114 258.222 164.439 258.1 164.855C258.109 164.898 258.113 164.942 258.113 164.985C258.113 165.028 258.113 165.072 258.113 165.115V169.08H256.995V165.18C256.995 164.703 256.861 164.309 256.593 163.997C256.333 163.685 255.969 163.529 255.501 163.529C255.119 163.529 254.79 163.638 254.513 163.854C254.244 164.062 254.045 164.361 253.915 164.751V169.08H252.797V162.58H253.915V163.295C254.157 162.992 254.439 162.78 254.76 162.658C255.089 162.537 255.418 162.476 255.748 162.476C256.181 162.476 256.567 162.572 256.904 162.762C257.242 162.944 257.511 163.204 257.71 163.542C257.866 163.334 258.035 163.161 258.217 163.022C258.399 162.884 258.586 162.775 258.776 162.697C258.967 162.611 259.158 162.554 259.348 162.528C259.539 162.494 259.717 162.476 259.881 162.476C260.254 162.476 260.588 162.541 260.882 162.671C261.186 162.793 261.441 162.966 261.649 163.191C261.857 163.417 262.017 163.694 262.13 164.023C262.243 164.352 262.299 164.716 262.299 165.115V169.08H261.181V165.18ZM263.929 166.828C263.929 166.767 263.91 166.716 263.872 166.676C263.834 166.633 263.782 166.612 263.716 166.612C263.651 166.612 263.599 166.633 263.561 166.676C263.523 166.716 263.504 166.767 263.504 166.828V166.841H263.284V166.828C263.284 166.769 263.295 166.714 263.316 166.663C263.339 166.612 263.37 166.568 263.408 166.53C263.446 166.492 263.492 166.462 263.545 166.441C263.598 166.42 263.655 166.409 263.716 166.409C263.778 166.409 263.835 166.42 263.888 166.441C263.941 166.462 263.986 166.492 264.024 166.53C264.062 166.568 264.092 166.612 264.113 166.663C264.137 166.714 264.148 166.769 264.148 166.828C264.148 166.896 264.133 166.959 264.104 167.019C264.074 167.078 264.031 167.142 263.974 167.209L263.662 167.571H264.145V167.778H263.208L263.681 167.235C263.764 167.142 263.825 167.064 263.866 167.003C263.908 166.941 263.929 166.883 263.929 166.828Z" fill="white" fill-opacity="0.64"/>
<path d="M165.691 181.72H163.715L164.695 180.532H166.968V191.08H165.691V181.72ZM169.524 185.821C169.524 184.86 169.618 184.038 169.807 183.355C169.995 182.671 170.252 182.112 170.579 181.676C170.916 181.24 171.312 180.923 171.768 180.725C172.223 180.517 172.723 180.413 173.268 180.413C173.813 180.413 174.313 180.517 174.769 180.725C175.224 180.923 175.615 181.24 175.942 181.676C176.279 182.112 176.536 182.671 176.715 183.355C176.903 184.038 176.997 184.86 176.997 185.821C176.997 186.781 176.903 187.603 176.715 188.287C176.527 188.97 176.264 189.53 175.927 189.966C175.601 190.401 175.209 190.723 174.754 190.931C174.298 191.129 173.798 191.228 173.253 191.228C172.709 191.228 172.208 191.129 171.753 190.931C171.297 190.723 170.901 190.401 170.564 189.966C170.237 189.53 169.98 188.97 169.792 188.287C169.614 187.603 169.524 186.781 169.524 185.821ZM170.832 185.821C170.832 186.613 170.891 187.277 171.01 187.811C171.129 188.346 171.292 188.782 171.5 189.119C171.718 189.456 171.976 189.698 172.273 189.847C172.57 189.985 172.897 190.055 173.253 190.055C173.61 190.055 173.937 189.985 174.234 189.847C174.541 189.698 174.798 189.456 175.006 189.119C175.224 188.782 175.393 188.346 175.511 187.811C175.63 187.277 175.69 186.613 175.69 185.821C175.69 185.038 175.63 184.38 175.511 183.845C175.393 183.3 175.224 182.859 175.006 182.523C174.798 182.186 174.546 181.948 174.249 181.81C173.952 181.661 173.625 181.587 173.268 181.587C172.912 181.587 172.58 181.661 172.273 181.81C171.976 181.948 171.718 182.186 171.5 182.523C171.292 182.859 171.129 183.3 171.01 183.845C170.891 184.38 170.832 185.038 170.832 185.821ZM178.664 185.821C178.664 184.86 178.758 184.038 178.947 183.355C179.135 182.671 179.392 182.112 179.719 181.676C180.056 181.24 180.452 180.923 180.908 180.725C181.363 180.517 181.863 180.413 182.408 180.413C182.953 180.413 183.453 180.517 183.909 180.725C184.364 180.923 184.755 181.24 185.082 181.676C185.419 182.112 185.676 182.671 185.855 183.355C186.043 184.038 186.137 184.86 186.137 185.821C186.137 186.781 186.043 187.603 185.855 188.287C185.667 188.97 185.404 189.53 185.067 189.966C184.741 190.401 184.349 190.723 183.894 190.931C183.438 191.129 182.938 191.228 182.393 191.228C181.849 191.228 181.348 191.129 180.893 190.931C180.437 190.723 180.041 190.401 179.704 189.966C179.377 189.53 179.12 188.97 178.932 188.287C178.754 187.603 178.664 186.781 178.664 185.821ZM179.972 185.821C179.972 186.613 180.031 187.277 180.15 187.811C180.269 188.346 180.432 188.782 180.64 189.119C180.858 189.456 181.116 189.698 181.413 189.847C181.71 189.985 182.037 190.055 182.393 190.055C182.75 190.055 183.077 189.985 183.374 189.847C183.681 189.698 183.938 189.456 184.146 189.119C184.364 188.782 184.533 188.346 184.651 187.811C184.77 187.277 184.83 186.613 184.83 185.821C184.83 185.038 184.77 184.38 184.651 183.845C184.533 183.3 184.364 182.859 184.146 182.523C183.938 182.186 183.686 181.948 183.389 181.81C183.092 181.661 182.765 181.587 182.408 181.587C182.052 181.587 181.72 181.661 181.413 181.81C181.116 181.948 180.858 182.186 180.64 182.523C180.432 182.859 180.269 183.3 180.15 183.845C180.031 184.38 179.972 185.038 179.972 185.821Z" fill="white"/>
<mask id="mask0_224_5217" style="mask-type:alpha" maskUnits="userSpaceOnUse" x="437" y="150" width="31" height="53">
<rect x="437.582" y="202.082" width="52" height="29.7123" transform="rotate(-90 437.582 202.082)" fill="url(#paint0_linear_224_5217)"/>
</mask>
<g mask="url(#mask0_224_5217)">
<rect x="437.582" y="202.082" width="52" height="29.7123" transform="rotate(-90 437.582 202.082)" fill="#0F0F0F"/>
</g>
</g>
</g>
<rect x="97.0479" y="150.832" width="369.904" height="50.4965" rx="10.3921" stroke="white" stroke-opacity="0.2" stroke-width="1.5"/>
</g>
<rect x="97.2264" y="235.007" width="369.547" height="57.5676" rx="10.2136" fill="#0F0F0F"/>
<rect x="97.2264" y="235.007" width="369.547" height="57.5676" rx="10.2136" fill="#C7125C" fill-opacity="0.08"/>
<rect x="97.2264" y="235.007" width="369.547" height="57.5676" rx="10.2136" stroke="#C7125C" stroke-width="1.85702"/>
<path d="M124.153 255.434C128.769 255.434 132.51 259.175 132.51 263.791C132.51 268.406 128.768 272.147 124.153 272.147C119.538 272.147 115.797 268.406 115.797 263.791C115.797 259.175 119.538 255.434 124.153 255.434Z" stroke="#C7125C" stroke-width="1.85702"/>
<circle cx="124.153" cy="263.79" r="3.71404" fill="#C7125C"/>
<path d="M147.804 269.409C147.378 269.409 146.977 269.345 146.601 269.216C146.234 269.078 145.912 268.88 145.635 268.622C145.358 268.364 145.135 268.048 144.966 267.671C144.808 267.285 144.729 266.844 144.729 266.349H146.081C146.081 266.646 146.125 266.909 146.214 267.136C146.303 267.354 146.427 267.538 146.586 267.686C146.744 267.825 146.922 267.934 147.12 268.013C147.328 268.082 147.551 268.117 147.789 268.117C148.294 268.117 148.71 267.973 149.037 267.686C149.364 267.399 149.527 266.953 149.527 266.349V258.743H150.879V266.438C150.879 266.933 150.795 267.369 150.627 267.745C150.468 268.112 150.245 268.419 149.958 268.667C149.681 268.914 149.354 269.102 148.977 269.231C148.611 269.35 148.22 269.409 147.804 269.409ZM158.725 268.548C158.408 268.835 158.046 269.053 157.64 269.201C157.244 269.34 156.818 269.409 156.363 269.409C155.818 269.409 155.313 269.31 154.847 269.112C154.382 268.914 153.981 268.647 153.644 268.31C153.307 267.963 153.045 267.557 152.857 267.092C152.669 266.616 152.574 266.111 152.574 265.576C152.574 265.042 152.669 264.542 152.857 264.076C153.045 263.601 153.307 263.195 153.644 262.858C153.981 262.511 154.382 262.239 154.847 262.041C155.313 261.843 155.818 261.744 156.363 261.744C156.818 261.744 157.244 261.818 157.64 261.966C158.046 262.105 158.408 262.318 158.725 262.605V261.862H160.003V269.291H158.725V268.548ZM156.392 268.206C156.927 268.206 157.393 268.092 157.789 267.864C158.195 267.637 158.507 267.349 158.725 267.003V264.15C158.507 263.804 158.195 263.516 157.789 263.289C157.393 263.061 156.927 262.947 156.392 262.947C156.026 262.947 155.689 263.016 155.382 263.155C155.085 263.284 154.823 263.467 154.595 263.705C154.377 263.942 154.204 264.225 154.075 264.551C153.956 264.868 153.897 265.21 153.897 265.576C153.897 265.943 153.956 266.29 154.075 266.616C154.204 266.933 154.377 267.211 154.595 267.448C154.823 267.686 155.085 267.874 155.382 268.013C155.689 268.142 156.026 268.206 156.392 268.206ZM162.441 271.415H161.579L162.574 269.291C162.406 269.201 162.262 269.073 162.144 268.904C162.025 268.726 161.965 268.523 161.965 268.295C161.965 267.998 162.069 267.741 162.277 267.523C162.495 267.295 162.758 267.181 163.065 267.181C163.382 267.181 163.644 267.295 163.852 267.523C164.06 267.741 164.164 267.998 164.164 268.295C164.164 268.543 164.095 268.766 163.956 268.964L162.441 271.415ZM170.533 259.872C170.276 259.872 170.058 259.788 169.88 259.619C169.701 259.441 169.612 259.223 169.612 258.966C169.612 258.718 169.701 258.505 169.88 258.327C170.058 258.148 170.276 258.059 170.533 258.059C170.791 258.059 171.004 258.148 171.172 258.327C171.341 258.505 171.425 258.718 171.425 258.966C171.425 259.223 171.341 259.441 171.172 259.619C171.004 259.788 170.791 259.872 170.533 259.872ZM169.88 261.862H171.157V269.291H169.88V261.862ZM176.762 269.409C176.207 269.409 175.697 269.31 175.231 269.112C174.766 268.914 174.365 268.642 174.028 268.295C173.691 267.949 173.424 267.542 173.226 267.077C173.038 266.611 172.944 266.111 172.944 265.576C172.944 265.042 173.038 264.542 173.226 264.076C173.424 263.611 173.691 263.204 174.028 262.858C174.365 262.511 174.766 262.239 175.231 262.041C175.697 261.843 176.207 261.744 176.762 261.744C177.386 261.744 177.93 261.858 178.396 262.085C178.871 262.303 179.272 262.58 179.599 262.917L178.782 263.809C178.544 263.571 178.257 263.368 177.92 263.2C177.594 263.031 177.207 262.947 176.762 262.947C176.395 262.947 176.058 263.016 175.751 263.155C175.454 263.284 175.192 263.467 174.964 263.705C174.746 263.942 174.573 264.225 174.444 264.551C174.325 264.868 174.266 265.21 174.266 265.576C174.266 265.943 174.325 266.29 174.444 266.616C174.573 266.933 174.746 267.211 174.964 267.448C175.192 267.686 175.454 267.874 175.751 268.013C176.058 268.142 176.395 268.206 176.762 268.206C177.207 268.206 177.594 268.122 177.92 267.953C178.257 267.785 178.544 267.582 178.782 267.344L179.599 268.236C179.272 268.572 178.871 268.855 178.396 269.083C177.93 269.3 177.386 269.409 176.762 269.409ZM181.298 258.743H182.575V262.709C182.862 262.353 183.209 262.105 183.615 261.966C184.021 261.818 184.442 261.744 184.878 261.744C185.294 261.744 185.675 261.818 186.022 261.966C186.378 262.105 186.68 262.303 186.928 262.561C187.186 262.818 187.384 263.135 187.522 263.511C187.671 263.888 187.745 264.304 187.745 264.759V269.291H186.467V264.834C186.467 264.289 186.299 263.838 185.962 263.482C185.636 263.125 185.18 262.947 184.596 262.947C184.071 262.947 183.635 263.086 183.288 263.363C182.951 263.63 182.714 264.007 182.575 264.492V269.291H181.298V258.743ZM193.629 258.743H194.907V262.605C195.214 262.318 195.566 262.105 195.962 261.966C196.368 261.818 196.804 261.744 197.269 261.744C197.814 261.744 198.319 261.843 198.784 262.041C199.25 262.239 199.651 262.511 199.988 262.858C200.324 263.195 200.587 263.601 200.775 264.076C200.963 264.542 201.057 265.042 201.057 265.576C201.057 266.111 200.963 266.616 200.775 267.092C200.587 267.557 200.324 267.963 199.988 268.31C199.651 268.647 199.25 268.914 198.784 269.112C198.319 269.31 197.814 269.409 197.269 269.409C196.804 269.409 196.368 269.34 195.962 269.201C195.566 269.053 195.214 268.835 194.907 268.548V269.291H193.629V258.743ZM197.239 262.947C196.705 262.947 196.234 263.061 195.828 263.289C195.422 263.516 195.115 263.804 194.907 264.15V267.003C195.115 267.349 195.422 267.637 195.828 267.864C196.234 268.092 196.705 268.206 197.239 268.206C197.606 268.206 197.938 268.142 198.235 268.013C198.542 267.874 198.804 267.686 199.022 267.448C199.25 267.211 199.423 266.933 199.542 266.616C199.671 266.29 199.735 265.943 199.735 265.576C199.735 265.21 199.671 264.868 199.542 264.551C199.423 264.225 199.25 263.942 199.022 263.705C198.804 263.467 198.542 263.284 198.235 263.155C197.938 263.016 197.606 262.947 197.239 262.947ZM203.496 259.872C203.238 259.872 203.02 259.788 202.842 259.619C202.664 259.441 202.574 259.223 202.574 258.966C202.574 258.718 202.664 258.505 202.842 258.327C203.02 258.148 203.238 258.059 203.496 258.059C203.753 258.059 203.966 258.148 204.134 258.327C204.303 258.505 204.387 258.718 204.387 258.966C204.387 259.223 204.303 259.441 204.134 259.619C203.966 259.788 203.753 259.872 203.496 259.872ZM202.842 261.862H204.119V269.291H202.842V261.862ZM206.411 261.862H207.688V262.709C207.976 262.353 208.322 262.105 208.728 261.966C209.134 261.818 209.555 261.744 209.991 261.744C210.407 261.744 210.788 261.818 211.135 261.966C211.492 262.105 211.794 262.303 212.041 262.561C212.299 262.818 212.497 263.135 212.636 263.511C212.784 263.888 212.858 264.304 212.858 264.759V269.291H211.581V264.834C211.581 264.289 211.412 263.838 211.076 263.482C210.749 263.125 210.293 262.947 209.709 262.947C209.184 262.947 208.748 263.086 208.402 263.363C208.065 263.63 207.827 264.007 207.688 264.492V269.291H206.411V261.862ZM218.876 258.743H224.967V260.05H220.228V263.244H224.076V264.551H220.228V267.983H224.967V269.291H218.876V258.743ZM227.492 259.872C227.234 259.872 227.016 259.788 226.838 259.619C226.66 259.441 226.571 259.223 226.571 258.966C226.571 258.718 226.66 258.505 226.838 258.327C227.016 258.148 227.234 258.059 227.492 258.059C227.749 258.059 227.962 258.148 228.13 258.327C228.299 258.505 228.383 258.718 228.383 258.966C228.383 259.223 228.299 259.441 228.13 259.619C227.962 259.788 227.749 259.872 227.492 259.872ZM226.838 261.862H228.116V269.291H226.838V261.862ZM233.586 272.173C233.051 272.173 232.502 272.098 231.937 271.95C231.373 271.801 230.867 271.583 230.422 271.296L231.09 270.212C231.407 270.439 231.784 270.623 232.219 270.761C232.665 270.91 233.136 270.984 233.631 270.984C233.958 270.984 234.27 270.949 234.567 270.88C234.864 270.821 235.126 270.717 235.354 270.568C235.592 270.42 235.78 270.226 235.919 269.989C236.057 269.751 236.127 269.459 236.127 269.112C236.127 268.984 236.112 268.83 236.082 268.652C236.052 268.473 236.003 268.315 235.933 268.176C235.319 268.771 234.532 269.068 233.571 269.068C233.017 269.068 232.512 268.974 232.056 268.785C231.61 268.597 231.229 268.34 230.912 268.013C230.595 267.686 230.348 267.3 230.169 266.854C229.991 266.408 229.902 265.928 229.902 265.413C229.902 264.898 229.991 264.418 230.169 263.972C230.348 263.516 230.595 263.125 230.912 262.798C231.229 262.472 231.61 262.214 232.056 262.026C232.512 261.838 233.017 261.744 233.571 261.744C234.047 261.744 234.473 261.818 234.849 261.966C235.235 262.115 235.582 262.333 235.889 262.62V261.862H237.167V267.775C237.266 268.033 237.335 268.285 237.374 268.533C237.424 268.78 237.449 269.013 237.449 269.231C237.449 269.766 237.335 270.217 237.107 270.583C236.889 270.959 236.597 271.266 236.231 271.504C235.864 271.742 235.448 271.91 234.983 272.009C234.527 272.118 234.062 272.173 233.586 272.173ZM233.601 267.879C234.136 267.879 234.601 267.765 234.998 267.538C235.394 267.3 235.691 267.008 235.889 266.661V264.15C235.691 263.804 235.394 263.516 234.998 263.289C234.601 263.061 234.136 262.947 233.601 262.947C233.244 262.947 232.918 263.011 232.621 263.14C232.333 263.259 232.086 263.432 231.878 263.66C231.67 263.878 231.506 264.135 231.387 264.433C231.279 264.73 231.224 265.057 231.224 265.413C231.224 265.76 231.279 266.087 231.387 266.394C231.506 266.691 231.67 266.953 231.878 267.181C232.086 267.399 232.333 267.572 232.621 267.701C232.918 267.82 233.244 267.879 233.601 267.879ZM242.787 269.409C242.233 269.409 241.723 269.31 241.257 269.112C240.792 268.914 240.391 268.642 240.054 268.295C239.717 267.949 239.45 267.542 239.252 267.077C239.063 266.611 238.969 266.111 238.969 265.576C238.969 265.042 239.063 264.542 239.252 264.076C239.45 263.601 239.717 263.195 240.054 262.858C240.391 262.511 240.782 262.239 241.227 262.041C241.683 261.843 242.173 261.744 242.698 261.744C243.213 261.744 243.689 261.838 244.124 262.026C244.57 262.204 244.951 262.472 245.268 262.828C245.595 263.175 245.848 263.606 246.026 264.121C246.214 264.636 246.313 265.225 246.323 265.888H240.292C240.321 266.215 240.405 266.522 240.544 266.81C240.683 267.087 240.861 267.33 241.079 267.538C241.297 267.745 241.549 267.909 241.837 268.028C242.134 268.147 242.451 268.206 242.787 268.206C243.263 268.206 243.684 268.117 244.05 267.939C244.417 267.76 244.719 267.552 244.956 267.315L245.773 268.206C245.457 268.543 245.041 268.83 244.526 269.068C244.02 269.295 243.441 269.409 242.787 269.409ZM242.624 262.917C242.079 262.917 241.599 263.086 241.183 263.422C240.767 263.759 240.49 264.21 240.351 264.774H244.882C244.793 264.16 244.535 263.695 244.11 263.378C243.684 263.061 243.188 262.907 242.624 262.917ZM248.049 261.862H249.326V262.709C249.613 262.353 249.96 262.105 250.366 261.966C250.772 261.818 251.193 261.744 251.629 261.744C252.045 261.744 252.426 261.818 252.773 261.966C253.129 262.105 253.432 262.303 253.679 262.561C253.937 262.818 254.135 263.135 254.273 263.511C254.422 263.888 254.496 264.304 254.496 264.759V269.291H253.219V264.834C253.219 264.289 253.05 263.838 252.713 263.482C252.387 263.125 251.931 262.947 251.347 262.947C250.822 262.947 250.386 263.086 250.039 263.363C249.703 263.63 249.465 264.007 249.326 264.492V269.291H248.049V261.862ZM255.493 261.862H256.964V260.273L258.242 259.634V261.862H260.485L260.203 263.021H258.242V266.943C258.242 267.32 258.321 267.612 258.48 267.82C258.638 268.028 258.925 268.132 259.341 268.132H260.337V269.291H259.207C258.494 269.291 257.94 269.112 257.544 268.756C257.157 268.389 256.964 267.849 256.964 267.136V263.021H255.776L255.493 261.862ZM267.023 268.459C266.736 268.815 266.389 269.063 265.983 269.201C265.587 269.34 265.171 269.409 264.735 269.409C264.309 269.409 263.918 269.34 263.562 269.201C263.215 269.053 262.913 268.85 262.655 268.592C262.408 268.335 262.215 268.023 262.076 267.656C261.937 267.28 261.868 266.859 261.868 266.394V261.862H263.146V266.319C263.146 266.864 263.309 267.315 263.636 267.671C263.973 268.028 264.428 268.206 265.003 268.206C265.518 268.206 265.944 268.077 266.28 267.82C266.627 267.562 266.875 267.196 267.023 266.72V261.862H268.301V269.291H267.023V268.459ZM263.398 260.808C263.161 260.808 262.953 260.723 262.774 260.555C262.596 260.387 262.507 260.174 262.507 259.916C262.507 259.669 262.596 259.461 262.774 259.292C262.953 259.124 263.161 259.04 263.398 259.04C263.656 259.04 263.869 259.124 264.037 259.292C264.215 259.461 264.305 259.669 264.305 259.916C264.305 260.174 264.215 260.387 264.037 260.555C263.869 260.723 263.656 260.808 263.398 260.808ZM266.741 260.808C266.493 260.808 266.28 260.723 266.102 260.555C265.934 260.387 265.85 260.174 265.85 259.916C265.85 259.669 265.934 259.461 266.102 259.292C266.28 259.124 266.493 259.04 266.741 259.04C266.998 259.04 267.211 259.124 267.38 259.292C267.548 259.461 267.632 259.669 267.632 259.916C267.632 260.174 267.548 260.387 267.38 260.555C267.211 260.723 266.998 260.808 266.741 260.808ZM280.176 264.834C280.176 264.289 280.028 263.838 279.731 263.482C279.433 263.125 279.017 262.947 278.483 262.947C278.017 262.947 277.631 263.081 277.324 263.348C277.017 263.615 276.794 263.987 276.655 264.462C276.665 264.512 276.67 264.561 276.67 264.611C276.67 264.66 276.67 264.71 276.67 264.759V269.291H275.393V264.834C275.393 264.289 275.239 263.838 274.932 263.482C274.635 263.125 274.219 262.947 273.684 262.947C273.248 262.947 272.872 263.071 272.555 263.318C272.248 263.556 272.02 263.898 271.872 264.343V269.291H270.594V261.862H271.872V262.68C272.149 262.333 272.471 262.09 272.837 261.952C273.214 261.813 273.59 261.744 273.966 261.744C274.462 261.744 274.902 261.853 275.289 262.07C275.675 262.278 275.982 262.576 276.21 262.962C276.388 262.724 276.581 262.526 276.789 262.368C276.997 262.209 277.21 262.085 277.428 261.996C277.646 261.897 277.864 261.833 278.082 261.803C278.299 261.763 278.502 261.744 278.691 261.744C279.116 261.744 279.498 261.818 279.835 261.966C280.181 262.105 280.473 262.303 280.711 262.561C280.949 262.818 281.132 263.135 281.261 263.511C281.389 263.888 281.454 264.304 281.454 264.759V269.291H280.176V264.834ZM286.906 269.409C286.351 269.409 285.841 269.31 285.376 269.112C284.91 268.914 284.509 268.642 284.173 268.295C283.836 267.949 283.568 267.542 283.37 267.077C283.182 266.611 283.088 266.111 283.088 265.576C283.088 265.042 283.182 264.542 283.37 264.076C283.568 263.601 283.836 263.195 284.173 262.858C284.509 262.511 284.9 262.239 285.346 262.041C285.802 261.843 286.292 261.744 286.817 261.744C287.332 261.744 287.807 261.838 288.243 262.026C288.689 262.204 289.07 262.472 289.387 262.828C289.714 263.175 289.966 263.606 290.145 264.121C290.333 264.636 290.432 265.225 290.442 265.888H284.41C284.44 266.215 284.524 266.522 284.663 266.81C284.801 267.087 284.98 267.33 285.198 267.538C285.415 267.745 285.668 267.909 285.955 268.028C286.252 268.147 286.569 268.206 286.906 268.206C287.381 268.206 287.802 268.117 288.169 267.939C288.535 267.76 288.837 267.552 289.075 267.315L289.892 268.206C289.575 268.543 289.159 268.83 288.644 269.068C288.139 269.295 287.56 269.409 286.906 269.409ZM286.743 262.917C286.198 262.917 285.718 263.086 285.302 263.422C284.886 263.759 284.608 264.21 284.47 264.774H289.001C288.912 264.16 288.654 263.695 288.228 263.378C287.802 263.061 287.307 262.907 286.743 262.917ZM292.167 261.862H293.445V262.739C293.702 262.422 294.005 262.184 294.351 262.026C294.698 261.867 295.079 261.788 295.495 261.788C295.673 261.788 295.847 261.803 296.015 261.833V263.155C295.807 263.096 295.569 263.066 295.302 263.066C294.896 263.066 294.525 263.165 294.188 263.363C293.861 263.561 293.613 263.853 293.445 264.239V269.291H292.167V261.862ZM298.294 263.942C297.997 263.942 297.739 263.838 297.521 263.63C297.303 263.412 297.194 263.15 297.194 262.843C297.194 262.536 297.303 262.278 297.521 262.07C297.739 261.853 297.997 261.744 298.294 261.744C298.601 261.744 298.858 261.853 299.066 262.07C299.284 262.278 299.393 262.536 299.393 262.843C299.393 263.15 299.284 263.412 299.066 263.63C298.858 263.838 298.601 263.942 298.294 263.942ZM298.294 269.409C297.997 269.409 297.739 269.305 297.521 269.097C297.303 268.88 297.194 268.617 297.194 268.31C297.194 268.003 297.303 267.745 297.521 267.538C297.739 267.32 297.997 267.211 298.294 267.211C298.601 267.211 298.858 267.32 299.066 267.538C299.284 267.745 299.393 268.003 299.393 268.31C299.393 268.617 299.284 268.88 299.066 269.097C298.858 269.305 298.601 269.409 298.294 269.409ZM302.019 259.872C301.762 259.872 301.544 259.788 301.365 259.619C301.187 259.441 301.098 259.223 301.098 258.966C301.098 258.718 301.187 258.505 301.365 258.327C301.544 258.148 301.762 258.059 302.019 258.059C302.277 258.059 302.49 258.148 302.658 258.327C302.826 258.505 302.91 258.718 302.91 258.966C302.91 259.223 302.826 259.441 302.658 259.619C302.49 259.788 302.277 259.872 302.019 259.872ZM301.365 261.862H302.643V269.291H301.365V261.862ZM304.934 261.862H306.212V262.709C306.499 262.353 306.846 262.105 307.252 261.966C307.658 261.818 308.079 261.744 308.515 261.744C308.931 261.744 309.312 261.818 309.659 261.966C310.015 262.105 310.317 262.303 310.565 262.561C310.822 262.818 311.02 263.135 311.159 263.511C311.308 263.888 311.382 264.304 311.382 264.759V269.291H310.104V264.834C310.104 264.289 309.936 263.838 309.599 263.482C309.272 263.125 308.817 262.947 308.232 262.947C307.707 262.947 307.272 263.086 306.925 263.363C306.588 263.63 306.351 264.007 306.212 264.492V269.291H304.934V261.862ZM314.31 269.409C314.013 269.409 313.756 269.305 313.538 269.097C313.32 268.88 313.211 268.617 313.211 268.31C313.211 268.003 313.32 267.745 313.538 267.538C313.756 267.32 314.013 267.211 314.31 267.211C314.617 267.211 314.875 267.32 315.083 267.538C315.301 267.745 315.41 268.003 315.41 268.31C315.41 268.617 315.301 268.88 315.083 269.097C314.875 269.305 314.617 269.409 314.31 269.409Z" fill="white"/>
<rect x="96.2979" y="300.931" width="371.404" height="59.4246" rx="11.1421" fill="#0F0F0F"/>
<rect x="97.0479" y="301.681" width="369.904" height="57.9246" rx="10.3921" stroke="white" stroke-opacity="0.2" stroke-width="1.5"/>
<path d="M124.153 322.287C128.769 322.287 132.51 326.028 132.51 330.643C132.51 335.258 128.768 339 124.153 339C119.538 339 115.797 335.258 115.797 330.643C115.797 326.028 119.538 322.287 124.153 322.287Z" fill="#0F0F0F"/>
<path d="M124.153 322.287C128.769 322.287 132.51 326.028 132.51 330.643C132.51 335.258 128.768 339 124.153 339C119.538 339 115.797 335.258 115.797 330.643C115.797 326.028 119.538 322.287 124.153 322.287Z" stroke="#F4D0DF" stroke-width="1.85702"/>
<path d="M147.21 328.641V336.143H145.858V325.477L153.375 333.098V325.595H154.727V336.262L147.21 328.641ZM160.455 336.262C159.9 336.262 159.39 336.163 158.925 335.965C158.459 335.767 158.058 335.495 157.721 335.148C157.384 334.801 157.117 334.395 156.919 333.93C156.731 333.464 156.637 332.964 156.637 332.429C156.637 331.894 156.731 331.394 156.919 330.929C157.117 330.453 157.384 330.047 157.721 329.711C158.058 329.364 158.449 329.092 158.895 328.894C159.35 328.695 159.841 328.596 160.366 328.596C160.881 328.596 161.356 328.69 161.792 328.879C162.237 329.057 162.619 329.324 162.936 329.681C163.262 330.028 163.515 330.458 163.693 330.973C163.882 331.488 163.981 332.078 163.99 332.741H157.959C157.989 333.068 158.073 333.375 158.211 333.662C158.35 333.94 158.528 334.182 158.746 334.39C158.964 334.598 159.217 334.762 159.504 334.881C159.801 334.999 160.118 335.059 160.455 335.059C160.93 335.059 161.351 334.97 161.717 334.791C162.084 334.613 162.386 334.405 162.624 334.167L163.441 335.059C163.124 335.396 162.708 335.683 162.193 335.92C161.688 336.148 161.108 336.262 160.455 336.262ZM160.291 329.77C159.747 329.77 159.266 329.938 158.85 330.275C158.434 330.612 158.157 331.063 158.018 331.627H162.549C162.46 331.013 162.203 330.547 161.777 330.231C161.351 329.914 160.856 329.76 160.291 329.77ZM166.37 326.725C166.112 326.725 165.894 326.64 165.716 326.472C165.538 326.294 165.449 326.076 165.449 325.818C165.449 325.571 165.538 325.358 165.716 325.179C165.894 325.001 166.112 324.912 166.37 324.912C166.627 324.912 166.84 325.001 167.008 325.179C167.177 325.358 167.261 325.571 167.261 325.818C167.261 326.076 167.177 326.294 167.008 326.472C166.84 326.64 166.627 326.725 166.37 326.725ZM165.716 328.715H166.994V336.143H165.716V328.715ZM169.285 328.715H170.563V329.562C170.85 329.205 171.196 328.958 171.602 328.819C172.009 328.671 172.429 328.596 172.865 328.596C173.281 328.596 173.663 328.671 174.009 328.819C174.366 328.958 174.668 329.156 174.915 329.413C175.173 329.671 175.371 329.988 175.51 330.364C175.658 330.741 175.732 331.157 175.732 331.612V336.143H174.455V331.686C174.455 331.142 174.286 330.691 173.95 330.335C173.623 329.978 173.167 329.8 172.583 329.8C172.058 329.8 171.622 329.938 171.276 330.216C170.939 330.483 170.701 330.859 170.563 331.345V336.143H169.285V328.715ZM178.022 338.268H177.161L178.156 336.143C177.988 336.054 177.844 335.925 177.725 335.757C177.606 335.579 177.547 335.376 177.547 335.148C177.547 334.851 177.651 334.593 177.859 334.375C178.077 334.148 178.339 334.034 178.646 334.034C178.963 334.034 179.226 334.148 179.434 334.375C179.642 334.593 179.746 334.851 179.746 335.148C179.746 335.396 179.676 335.618 179.538 335.816L178.022 338.268ZM186.115 326.725C185.857 326.725 185.64 326.64 185.461 326.472C185.283 326.294 185.194 326.076 185.194 325.818C185.194 325.571 185.283 325.358 185.461 325.179C185.64 325.001 185.857 324.912 186.115 324.912C186.372 324.912 186.585 325.001 186.754 325.179C186.922 325.358 187.006 325.571 187.006 325.818C187.006 326.076 186.922 326.294 186.754 326.472C186.585 326.64 186.372 326.725 186.115 326.725ZM185.461 328.715H186.739V336.143H185.461V328.715ZM192.343 336.262C191.789 336.262 191.278 336.163 190.813 335.965C190.348 335.767 189.946 335.495 189.61 335.148C189.273 334.801 189.005 334.395 188.807 333.93C188.619 333.464 188.525 332.964 188.525 332.429C188.525 331.894 188.619 331.394 188.807 330.929C189.005 330.463 189.273 330.057 189.61 329.711C189.946 329.364 190.348 329.092 190.813 328.894C191.278 328.695 191.789 328.596 192.343 328.596C192.967 328.596 193.512 328.71 193.977 328.938C194.453 329.156 194.854 329.433 195.181 329.77L194.364 330.661C194.126 330.424 193.839 330.221 193.502 330.052C193.175 329.884 192.789 329.8 192.343 329.8C191.977 329.8 191.64 329.869 191.333 330.008C191.036 330.136 190.773 330.32 190.546 330.557C190.328 330.795 190.154 331.077 190.026 331.404C189.907 331.721 189.847 332.063 189.847 332.429C189.847 332.796 189.907 333.142 190.026 333.469C190.154 333.786 190.328 334.063 190.546 334.301C190.773 334.539 191.036 334.727 191.333 334.866C191.64 334.994 191.977 335.059 192.343 335.059C192.789 335.059 193.175 334.975 193.502 334.806C193.839 334.638 194.126 334.435 194.364 334.197L195.181 335.089C194.854 335.425 194.453 335.708 193.977 335.935C193.512 336.153 192.967 336.262 192.343 336.262ZM196.879 325.595H198.157V329.562C198.444 329.205 198.791 328.958 199.197 328.819C199.603 328.671 200.024 328.596 200.459 328.596C200.875 328.596 201.257 328.671 201.603 328.819C201.96 328.958 202.262 329.156 202.51 329.413C202.767 329.671 202.965 329.988 203.104 330.364C203.252 330.741 203.327 331.157 203.327 331.612V336.143H202.049V331.686C202.049 331.142 201.881 330.691 201.544 330.335C201.217 329.978 200.761 329.8 200.177 329.8C199.652 329.8 199.216 329.938 198.87 330.216C198.533 330.483 198.295 330.859 198.157 331.345V336.143H196.879V325.595ZM209.211 325.595H210.488V329.458C210.795 329.171 211.147 328.958 211.543 328.819C211.949 328.671 212.385 328.596 212.851 328.596C213.395 328.596 213.9 328.695 214.366 328.894C214.831 329.092 215.233 329.364 215.569 329.711C215.906 330.047 216.168 330.453 216.357 330.929C216.545 331.394 216.639 331.894 216.639 332.429C216.639 332.964 216.545 333.469 216.357 333.945C216.168 334.41 215.906 334.816 215.569 335.163C215.233 335.5 214.831 335.767 214.366 335.965C213.9 336.163 213.395 336.262 212.851 336.262C212.385 336.262 211.949 336.193 211.543 336.054C211.147 335.906 210.795 335.688 210.488 335.401V336.143H209.211V325.595ZM212.821 329.8C212.286 329.8 211.816 329.914 211.41 330.141C211.003 330.369 210.696 330.656 210.488 331.003V333.855C210.696 334.202 211.003 334.489 211.41 334.717C211.816 334.945 212.286 335.059 212.821 335.059C213.187 335.059 213.519 334.994 213.816 334.866C214.123 334.727 214.386 334.539 214.604 334.301C214.831 334.063 215.005 333.786 215.124 333.469C215.252 333.142 215.317 332.796 215.317 332.429C215.317 332.063 215.252 331.721 215.124 331.404C215.005 331.077 214.831 330.795 214.604 330.557C214.386 330.32 214.123 330.136 213.816 330.008C213.519 329.869 213.187 329.8 212.821 329.8ZM219.077 326.725C218.82 326.725 218.602 326.64 218.423 326.472C218.245 326.294 218.156 326.076 218.156 325.818C218.156 325.571 218.245 325.358 218.423 325.179C218.602 325.001 218.82 324.912 219.077 324.912C219.335 324.912 219.547 325.001 219.716 325.179C219.884 325.358 219.968 325.571 219.968 325.818C219.968 326.076 219.884 326.294 219.716 326.472C219.547 326.64 219.335 326.725 219.077 326.725ZM218.423 328.715H219.701V336.143H218.423V328.715ZM221.992 328.715H223.27V329.562C223.557 329.205 223.904 328.958 224.31 328.819C224.716 328.671 225.137 328.596 225.573 328.596C225.989 328.596 226.37 328.671 226.717 328.819C227.073 328.958 227.375 329.156 227.623 329.413C227.88 329.671 228.078 329.988 228.217 330.364C228.366 330.741 228.44 331.157 228.44 331.612V336.143H227.162V331.686C227.162 331.142 226.994 330.691 226.657 330.335C226.33 329.978 225.875 329.8 225.29 329.8C224.765 329.8 224.33 329.938 223.983 330.216C223.646 330.483 223.409 330.859 223.27 331.345V336.143H221.992V328.715ZM234.324 328.715H235.602V329.562C235.889 329.205 236.236 328.958 236.642 328.819C237.048 328.671 237.469 328.596 237.904 328.596C238.32 328.596 238.702 328.671 239.048 328.819C239.405 328.958 239.707 329.156 239.955 329.413C240.212 329.671 240.41 329.988 240.549 330.364C240.697 330.741 240.772 331.157 240.772 331.612V336.143H239.494V331.686C239.494 331.142 239.326 330.691 238.989 330.335C238.662 329.978 238.207 329.8 237.622 329.8C237.097 329.8 236.661 329.938 236.315 330.216C235.978 330.483 235.74 330.859 235.602 331.345V336.143H234.324V328.715ZM243.566 326.725C243.309 326.725 243.091 326.64 242.913 326.472C242.735 326.294 242.645 326.076 242.645 325.818C242.645 325.571 242.735 325.358 242.913 325.179C243.091 325.001 243.309 324.912 243.566 324.912C243.824 324.912 244.037 325.001 244.205 325.179C244.374 325.358 244.458 325.571 244.458 325.818C244.458 326.076 244.374 326.294 244.205 326.472C244.037 326.64 243.824 326.725 243.566 326.725ZM242.913 328.715H244.19V336.143H242.913V328.715ZM249.795 336.262C249.24 336.262 248.73 336.163 248.265 335.965C247.799 335.767 247.398 335.495 247.061 335.148C246.724 334.801 246.457 334.395 246.259 333.93C246.071 333.464 245.977 332.964 245.977 332.429C245.977 331.894 246.071 331.394 246.259 330.929C246.457 330.463 246.724 330.057 247.061 329.711C247.398 329.364 247.799 329.092 248.265 328.894C248.73 328.695 249.24 328.596 249.795 328.596C250.419 328.596 250.963 328.71 251.429 328.938C251.904 329.156 252.305 329.433 252.632 329.77L251.815 330.661C251.577 330.424 251.29 330.221 250.953 330.052C250.627 329.884 250.24 329.8 249.795 329.8C249.428 329.8 249.092 329.869 248.784 330.008C248.487 330.136 248.225 330.32 247.997 330.557C247.779 330.795 247.606 331.077 247.477 331.404C247.358 331.721 247.299 332.063 247.299 332.429C247.299 332.796 247.358 333.142 247.477 333.469C247.606 333.786 247.779 334.063 247.997 334.301C248.225 334.539 248.487 334.727 248.784 334.866C249.092 334.994 249.428 335.059 249.795 335.059C250.24 335.059 250.627 334.975 250.953 334.806C251.29 334.638 251.577 334.435 251.815 334.197L252.632 335.089C252.305 335.425 251.904 335.708 251.429 335.935C250.963 336.153 250.419 336.262 249.795 336.262ZM254.331 325.595H255.608V329.562C255.895 329.205 256.242 328.958 256.648 328.819C257.054 328.671 257.475 328.596 257.911 328.596C258.327 328.596 258.708 328.671 259.055 328.819C259.411 328.958 259.713 329.156 259.961 329.413C260.219 329.671 260.417 329.988 260.555 330.364C260.704 330.741 260.778 331.157 260.778 331.612V336.143H259.501V331.686C259.501 331.142 259.332 330.691 258.995 330.335C258.669 329.978 258.213 329.8 257.629 329.8C257.104 329.8 256.668 329.938 256.321 330.216C255.985 330.483 255.747 330.859 255.608 331.345V336.143H254.331V325.595ZM261.775 328.715H263.246V327.126L264.524 326.487V328.715H266.767L266.485 329.874H264.524V333.796C264.524 334.172 264.603 334.465 264.761 334.673C264.92 334.881 265.207 334.985 265.623 334.985H266.618V336.143H265.489C264.776 336.143 264.222 335.965 263.826 335.608C263.439 335.242 263.246 334.702 263.246 333.989V329.874H262.058L261.775 328.715ZM272.309 325.595H278.4V326.903H273.661V330.097H277.509V331.404H273.661V334.836H278.4V336.143H272.309V325.595ZM280.924 326.725C280.667 326.725 280.449 326.64 280.271 326.472C280.093 326.294 280.003 326.076 280.003 325.818C280.003 325.571 280.093 325.358 280.271 325.179C280.449 325.001 280.667 324.912 280.924 324.912C281.182 324.912 281.395 325.001 281.563 325.179C281.732 325.358 281.816 325.571 281.816 325.818C281.816 326.076 281.732 326.294 281.563 326.472C281.395 326.64 281.182 326.725 280.924 326.725ZM280.271 328.715H281.548V336.143H280.271V328.715ZM287.019 339.025C286.484 339.025 285.934 338.951 285.37 338.803C284.805 338.654 284.3 338.436 283.855 338.149L284.523 337.064C284.84 337.292 285.216 337.475 285.652 337.614C286.098 337.763 286.568 337.837 287.064 337.837C287.39 337.837 287.702 337.802 287.999 337.733C288.297 337.673 288.559 337.57 288.787 337.421C289.025 337.272 289.213 337.079 289.351 336.842C289.49 336.604 289.559 336.312 289.559 335.965C289.559 335.836 289.545 335.683 289.515 335.504C289.485 335.326 289.436 335.168 289.366 335.029C288.752 335.623 287.965 335.92 287.004 335.92C286.45 335.92 285.944 335.826 285.489 335.638C285.043 335.45 284.662 335.193 284.345 334.866C284.028 334.539 283.78 334.153 283.602 333.707C283.424 333.261 283.335 332.781 283.335 332.266C283.335 331.751 283.424 331.27 283.602 330.825C283.78 330.369 284.028 329.978 284.345 329.651C284.662 329.324 285.043 329.067 285.489 328.879C285.944 328.69 286.45 328.596 287.004 328.596C287.48 328.596 287.905 328.671 288.282 328.819C288.668 328.968 289.015 329.186 289.322 329.473V328.715H290.599V334.628C290.698 334.885 290.768 335.138 290.807 335.386C290.857 335.633 290.882 335.866 290.882 336.084C290.882 336.619 290.768 337.069 290.54 337.436C290.322 337.812 290.03 338.119 289.663 338.357C289.297 338.595 288.881 338.763 288.415 338.862C287.96 338.971 287.494 339.025 287.019 339.025ZM287.034 334.732C287.569 334.732 288.034 334.618 288.43 334.39C288.826 334.153 289.124 333.86 289.322 333.514V331.003C289.124 330.656 288.826 330.369 288.43 330.141C288.034 329.914 287.569 329.8 287.034 329.8C286.677 329.8 286.35 329.864 286.053 329.993C285.766 330.112 285.519 330.285 285.311 330.513C285.103 330.731 284.939 330.988 284.82 331.285C284.711 331.582 284.657 331.909 284.657 332.266C284.657 332.612 284.711 332.939 284.82 333.246C284.939 333.543 285.103 333.806 285.311 334.034C285.519 334.252 285.766 334.425 286.053 334.554C286.35 334.673 286.677 334.732 287.034 334.732ZM296.22 336.262C295.666 336.262 295.155 336.163 294.69 335.965C294.224 335.767 293.823 335.495 293.487 335.148C293.15 334.801 292.882 334.395 292.684 333.93C292.496 333.464 292.402 332.964 292.402 332.429C292.402 331.894 292.496 331.394 292.684 330.929C292.882 330.453 293.15 330.047 293.487 329.711C293.823 329.364 294.215 329.092 294.66 328.894C295.116 328.695 295.606 328.596 296.131 328.596C296.646 328.596 297.121 328.69 297.557 328.879C298.003 329.057 298.384 329.324 298.701 329.681C299.028 330.028 299.281 330.458 299.459 330.973C299.647 331.488 299.746 332.078 299.756 332.741H293.724C293.754 333.068 293.838 333.375 293.977 333.662C294.116 333.94 294.294 334.182 294.512 334.39C294.73 334.598 294.982 334.762 295.269 334.881C295.566 334.999 295.883 335.059 296.22 335.059C296.696 335.059 297.116 334.97 297.483 334.791C297.849 334.613 298.151 334.405 298.389 334.167L299.206 335.059C298.889 335.396 298.473 335.683 297.958 335.92C297.453 336.148 296.874 336.262 296.22 336.262ZM296.057 329.77C295.512 329.77 295.032 329.938 294.616 330.275C294.2 330.612 293.922 331.063 293.784 331.627H298.315C298.226 331.013 297.968 330.547 297.542 330.231C297.116 329.914 296.621 329.76 296.057 329.77ZM301.481 328.715H302.759V329.562C303.046 329.205 303.393 328.958 303.799 328.819C304.205 328.671 304.626 328.596 305.062 328.596C305.478 328.596 305.859 328.671 306.206 328.819C306.562 328.958 306.864 329.156 307.112 329.413C307.369 329.671 307.568 329.988 307.706 330.364C307.855 330.741 307.929 331.157 307.929 331.612V336.143H306.651V331.686C306.651 331.142 306.483 330.691 306.146 330.335C305.819 329.978 305.364 329.8 304.78 329.8C304.255 329.8 303.819 329.938 303.472 330.216C303.135 330.483 302.898 330.859 302.759 331.345V336.143H301.481V328.715ZM308.926 328.715H310.397V327.126L311.675 326.487V328.715H313.918L313.636 329.874H311.675V333.796C311.675 334.172 311.754 334.465 311.912 334.673C312.071 334.881 312.358 334.985 312.774 334.985H313.769V336.143H312.64C311.927 336.143 311.373 335.965 310.976 335.608C310.59 335.242 310.397 334.702 310.397 333.989V329.874H309.209L308.926 328.715ZM320.456 335.311C320.169 335.668 319.822 335.916 319.416 336.054C319.02 336.193 318.604 336.262 318.168 336.262C317.742 336.262 317.351 336.193 316.995 336.054C316.648 335.906 316.346 335.703 316.088 335.445C315.841 335.188 315.648 334.876 315.509 334.509C315.37 334.133 315.301 333.712 315.301 333.246V328.715H316.579V333.172C316.579 333.717 316.742 334.167 317.069 334.524C317.406 334.881 317.861 335.059 318.436 335.059C318.951 335.059 319.376 334.93 319.713 334.673C320.06 334.415 320.307 334.049 320.456 333.573V328.715H321.734V336.143H320.456V335.311ZM316.831 327.66C316.593 327.66 316.385 327.576 316.207 327.408C316.029 327.24 315.94 327.027 315.94 326.769C315.94 326.521 316.029 326.313 316.207 326.145C316.385 325.977 316.593 325.893 316.831 325.893C317.089 325.893 317.302 325.977 317.47 326.145C317.648 326.313 317.737 326.521 317.737 326.769C317.737 327.027 317.648 327.24 317.47 327.408C317.302 327.576 317.089 327.66 316.831 327.66ZM320.174 327.66C319.926 327.66 319.713 327.576 319.535 327.408C319.367 327.24 319.282 327.027 319.282 326.769C319.282 326.521 319.367 326.313 319.535 326.145C319.713 325.977 319.926 325.893 320.174 325.893C320.431 325.893 320.644 325.977 320.813 326.145C320.981 326.313 321.065 326.521 321.065 326.769C321.065 327.027 320.981 327.24 320.813 327.408C320.644 327.576 320.431 327.66 320.174 327.66ZM333.609 331.686C333.609 331.142 333.46 330.691 333.163 330.335C332.866 329.978 332.45 329.8 331.915 329.8C331.45 329.8 331.064 329.933 330.757 330.201C330.45 330.468 330.227 330.84 330.088 331.315C330.098 331.365 330.103 331.414 330.103 331.464C330.103 331.513 330.103 331.563 330.103 331.612V336.143H328.825V331.686C328.825 331.142 328.672 330.691 328.365 330.335C328.068 329.978 327.652 329.8 327.117 329.8C326.681 329.8 326.305 329.924 325.988 330.171C325.681 330.409 325.453 330.751 325.304 331.196V336.143H324.027V328.715H325.304V329.532C325.582 329.186 325.904 328.943 326.27 328.804C326.646 328.666 327.023 328.596 327.399 328.596C327.894 328.596 328.335 328.705 328.721 328.923C329.108 329.131 329.415 329.428 329.642 329.815C329.821 329.577 330.014 329.379 330.222 329.22C330.43 329.062 330.643 328.938 330.861 328.849C331.079 328.75 331.296 328.686 331.514 328.656C331.732 328.616 331.935 328.596 332.123 328.596C332.549 328.596 332.931 328.671 333.267 328.819C333.614 328.958 333.906 329.156 334.144 329.413C334.382 329.671 334.565 329.988 334.694 330.364C334.822 330.741 334.887 331.157 334.887 331.612V336.143H333.609V331.686ZM340.339 336.262C339.784 336.262 339.274 336.163 338.809 335.965C338.343 335.767 337.942 335.495 337.605 335.148C337.269 334.801 337.001 334.395 336.803 333.93C336.615 333.464 336.521 332.964 336.521 332.429C336.521 331.894 336.615 331.394 336.803 330.929C337.001 330.453 337.269 330.047 337.605 329.711C337.942 329.364 338.333 329.092 338.779 328.894C339.235 328.695 339.725 328.596 340.25 328.596C340.765 328.596 341.24 328.69 341.676 328.879C342.122 329.057 342.503 329.324 342.82 329.681C343.147 330.028 343.399 330.458 343.578 330.973C343.766 331.488 343.865 332.078 343.875 332.741H337.843C337.873 333.068 337.957 333.375 338.096 333.662C338.234 333.94 338.413 334.182 338.63 334.39C338.848 334.598 339.101 334.762 339.388 334.881C339.685 334.999 340.002 335.059 340.339 335.059C340.814 335.059 341.235 334.97 341.602 334.791C341.968 334.613 342.27 334.405 342.508 334.167L343.325 335.059C343.008 335.396 342.592 335.683 342.077 335.92C341.572 336.148 340.993 336.262 340.339 336.262ZM340.175 329.77C339.631 329.77 339.15 329.938 338.734 330.275C338.318 330.612 338.041 331.063 337.902 331.627H342.434C342.344 331.013 342.087 330.547 341.661 330.231C341.235 329.914 340.74 329.76 340.175 329.77ZM345.6 328.715H346.878V329.592C347.135 329.275 347.437 329.037 347.784 328.879C348.131 328.72 348.512 328.641 348.928 328.641C349.106 328.641 349.28 328.656 349.448 328.686V330.008C349.24 329.948 349.002 329.919 348.735 329.919C348.329 329.919 347.957 330.018 347.621 330.216C347.294 330.414 347.046 330.706 346.878 331.092V336.143H345.6V328.715ZM351.726 330.795C351.429 330.795 351.172 330.691 350.954 330.483C350.736 330.265 350.627 330.003 350.627 329.696C350.627 329.389 350.736 329.131 350.954 328.923C351.172 328.705 351.429 328.596 351.726 328.596C352.033 328.596 352.291 328.705 352.499 328.923C352.717 329.131 352.826 329.389 352.826 329.696C352.826 330.003 352.717 330.265 352.499 330.483C352.291 330.691 352.033 330.795 351.726 330.795ZM351.726 336.262C351.429 336.262 351.172 336.158 350.954 335.95C350.736 335.732 350.627 335.47 350.627 335.163C350.627 334.856 350.736 334.598 350.954 334.39C351.172 334.172 351.429 334.063 351.726 334.063C352.033 334.063 352.291 334.172 352.499 334.39C352.717 334.598 352.826 334.856 352.826 335.163C352.826 335.47 352.717 335.732 352.499 335.95C352.291 336.158 352.033 336.262 351.726 336.262ZM355.452 326.725C355.194 326.725 354.976 326.64 354.798 326.472C354.62 326.294 354.531 326.076 354.531 325.818C354.531 325.571 354.62 325.358 354.798 325.179C354.976 325.001 355.194 324.912 355.452 324.912C355.709 324.912 355.922 325.001 356.091 325.179C356.259 325.358 356.343 325.571 356.343 325.818C356.343 326.076 356.259 326.294 356.091 326.472C355.922 326.64 355.709 326.725 355.452 326.725ZM354.798 328.715H356.076V336.143H354.798V328.715ZM358.367 328.715H359.645V329.562C359.932 329.205 360.279 328.958 360.685 328.819C361.091 328.671 361.512 328.596 361.947 328.596C362.363 328.596 362.745 328.671 363.091 328.819C363.448 328.958 363.75 329.156 363.998 329.413C364.255 329.671 364.453 329.988 364.592 330.364C364.74 330.741 364.815 331.157 364.815 331.612V336.143H363.537V331.686C363.537 331.142 363.369 330.691 363.032 330.335C362.705 329.978 362.25 329.8 361.665 329.8C361.14 329.8 360.705 329.938 360.358 330.216C360.021 330.483 359.783 330.859 359.645 331.345V336.143H358.367V328.715ZM367.743 336.262C367.446 336.262 367.189 336.158 366.971 335.95C366.753 335.732 366.644 335.47 366.644 335.163C366.644 334.856 366.753 334.598 366.971 334.39C367.189 334.172 367.446 334.063 367.743 334.063C368.05 334.063 368.308 334.172 368.516 334.39C368.734 334.598 368.843 334.856 368.843 335.163C368.843 335.47 368.734 335.732 368.516 335.95C368.308 336.158 368.05 336.262 367.743 336.262Z" fill="white"/>
<path d="M108.09 393.284H266.493C272.493 393.284 277.357 398.148 277.357 404.147V500.128C277.357 506.128 272.493 510.992 266.493 510.992H108.09C102.09 510.992 97.2266 506.128 97.2266 500.128V404.147C97.2266 398.148 102.09 393.284 108.09 393.284Z" fill="#0F0F0F"/>
<path d="M108.09 393.284H266.493C272.493 393.284 277.357 398.148 277.357 404.147V500.128C277.357 506.128 272.493 510.992 266.493 510.992H108.09C102.09 510.992 97.2266 506.128 97.2266 500.128V404.147C97.2266 398.148 102.09 393.284 108.09 393.284Z" fill="#C7125C" fill-opacity="0.08"/>
<path d="M108.09 393.284H266.493C272.493 393.284 277.357 398.148 277.357 404.147V500.128C277.357 506.128 272.493 510.992 266.493 510.992H108.09C102.09 510.992 97.2266 506.128 97.2266 500.128V404.147C97.2266 398.148 102.09 393.284 108.09 393.284Z" stroke="#C7125C" stroke-width="1.85702"/>
<path fill-rule="evenodd" clip-rule="evenodd" d="M175.914 423.982C176.6 422.539 178.357 421.967 179.761 422.731L196.137 431.638C196.326 431.741 196.503 431.865 196.664 432.009L204.067 438.635C205.438 439.862 205.264 442.056 203.718 443.052L190.403 451.632C189.55 452.181 188.465 452.224 187.572 451.742L170.123 442.329C168.817 441.625 168.293 440.022 168.929 438.682L175.914 423.982Z" fill="#C7125C" fill-opacity="0.1" stroke="#C7125C" stroke-width="1.85702"/>
<path d="M188.067 451.951L197.112 432.405" stroke="#C7125C" stroke-width="1.85702" stroke-linecap="round" stroke-linejoin="round"/>
<path d="M154.273 483.755C153.5 483.755 152.812 483.597 152.208 483.28C151.614 482.953 151.158 482.567 150.841 482.121L151.866 481.23C152.124 481.556 152.456 481.844 152.862 482.091C153.278 482.339 153.743 482.463 154.258 482.463C154.872 482.463 155.357 482.334 155.714 482.076C156.071 481.809 156.249 481.442 156.249 480.977C156.249 480.492 156.1 480.105 155.803 479.818C155.516 479.531 155.09 479.264 154.526 479.016L153.56 478.6C152.758 478.253 152.173 477.837 151.807 477.352C151.44 476.857 151.257 476.277 151.257 475.614C151.257 475.218 151.341 474.856 151.51 474.529C151.688 474.203 151.921 473.925 152.208 473.697C152.495 473.46 152.822 473.281 153.188 473.163C153.565 473.034 153.946 472.97 154.332 472.97C154.956 472.97 155.516 473.088 156.011 473.326C156.506 473.554 156.932 473.886 157.289 474.321L156.338 475.272C156.061 474.945 155.764 474.698 155.447 474.529C155.14 474.351 154.753 474.262 154.288 474.262C154.06 474.262 153.847 474.292 153.649 474.351C153.451 474.411 153.273 474.5 153.114 474.619C152.956 474.737 152.832 474.886 152.743 475.064C152.654 475.233 152.609 475.426 152.609 475.644C152.609 476.03 152.728 476.362 152.966 476.639C153.203 476.916 153.604 477.179 154.169 477.426L155.135 477.842C155.491 478.001 155.818 478.174 156.115 478.362C156.422 478.55 156.685 478.768 156.903 479.016C157.13 479.254 157.304 479.526 157.423 479.833C157.551 480.13 157.616 480.462 157.616 480.828C157.616 481.264 157.536 481.66 157.378 482.017C157.229 482.373 157.007 482.68 156.709 482.938C156.422 483.195 156.071 483.399 155.655 483.547C155.249 483.686 154.788 483.755 154.273 483.755ZM165.007 482.893C164.69 483.181 164.329 483.399 163.923 483.547C163.527 483.686 163.101 483.755 162.645 483.755C162.101 483.755 161.595 483.656 161.13 483.458C160.664 483.26 160.263 482.992 159.927 482.656C159.59 482.309 159.327 481.903 159.139 481.438C158.951 480.962 158.857 480.457 158.857 479.922C158.857 479.387 158.951 478.887 159.139 478.422C159.327 477.946 159.59 477.54 159.927 477.204C160.263 476.857 160.664 476.585 161.13 476.386C161.595 476.188 162.101 476.089 162.645 476.089C163.101 476.089 163.527 476.164 163.923 476.312C164.329 476.451 164.69 476.664 165.007 476.951V476.208H166.285V483.636H165.007V482.893ZM162.675 482.552C163.21 482.552 163.675 482.438 164.071 482.21C164.478 481.982 164.789 481.695 165.007 481.348V478.496C164.789 478.149 164.478 477.862 164.071 477.634C163.675 477.407 163.21 477.293 162.675 477.293C162.309 477.293 161.972 477.362 161.665 477.501C161.368 477.629 161.105 477.813 160.877 478.05C160.659 478.288 160.486 478.57 160.357 478.897C160.239 479.214 160.179 479.556 160.179 479.922C160.179 480.289 160.239 480.635 160.357 480.962C160.486 481.279 160.659 481.556 160.877 481.794C161.105 482.032 161.368 482.22 161.665 482.359C161.972 482.487 162.309 482.552 162.675 482.552ZM167.431 476.208H168.901V474.619L170.179 473.98V476.208H173.017V474.619L174.294 473.98V476.208H176.537L176.255 477.367H174.294V481.289C174.294 481.665 174.373 481.957 174.532 482.165C174.69 482.373 174.978 482.477 175.394 482.477H176.389V483.636H175.26C174.547 483.636 173.992 483.458 173.596 483.101C173.21 482.735 173.017 482.195 173.017 481.482V477.367H170.179V481.289C170.179 481.665 170.258 481.957 170.417 482.165C170.575 482.373 170.862 482.477 171.278 482.477H172.274V483.636H171.145C170.432 483.636 169.877 483.458 169.481 483.101C169.095 482.735 168.901 482.195 168.901 481.482V477.367H167.713L167.431 476.208ZM181.521 483.755C180.966 483.755 180.456 483.656 179.991 483.458C179.525 483.26 179.124 482.988 178.787 482.641C178.451 482.294 178.183 481.888 177.985 481.423C177.797 480.957 177.703 480.457 177.703 479.922C177.703 479.387 177.797 478.887 177.985 478.422C178.183 477.946 178.451 477.54 178.787 477.204C179.124 476.857 179.515 476.585 179.961 476.386C180.416 476.188 180.907 476.089 181.432 476.089C181.947 476.089 182.422 476.183 182.858 476.372C183.304 476.55 183.685 476.817 184.002 477.174C184.329 477.52 184.581 477.951 184.759 478.466C184.948 478.981 185.047 479.571 185.057 480.234H179.025C179.055 480.561 179.139 480.868 179.278 481.155C179.416 481.433 179.594 481.675 179.812 481.883C180.03 482.091 180.283 482.255 180.57 482.373C180.867 482.492 181.184 482.552 181.521 482.552C181.996 482.552 182.417 482.463 182.784 482.284C183.15 482.106 183.452 481.898 183.69 481.66L184.507 482.552C184.19 482.888 183.774 483.176 183.259 483.413C182.754 483.641 182.174 483.755 181.521 483.755ZM181.357 477.263C180.813 477.263 180.332 477.431 179.916 477.768C179.5 478.105 179.223 478.555 179.084 479.12H183.616C183.526 478.506 183.269 478.04 182.843 477.723C182.417 477.407 181.922 477.253 181.357 477.263ZM186.782 473.088H188.06V483.636H186.782V473.088ZM195.996 482.893C195.679 483.181 195.318 483.399 194.912 483.547C194.516 483.686 194.09 483.755 193.634 483.755C193.09 483.755 192.584 483.656 192.119 483.458C191.653 483.26 191.252 482.992 190.916 482.656C190.579 482.309 190.316 481.903 190.128 481.438C189.94 480.962 189.846 480.457 189.846 479.922C189.846 479.387 189.94 478.887 190.128 478.422C190.316 477.946 190.579 477.54 190.916 477.204C191.252 476.857 191.653 476.585 192.119 476.386C192.584 476.188 193.09 476.089 193.634 476.089C194.09 476.089 194.516 476.164 194.912 476.312C195.318 476.451 195.679 476.664 195.996 476.951V473.088H197.274V483.636H195.996V482.893ZM193.664 482.552C194.199 482.552 194.664 482.438 195.06 482.21C195.467 481.982 195.778 481.695 195.996 481.348V478.496C195.778 478.149 195.467 477.862 195.06 477.634C194.664 477.407 194.199 477.293 193.664 477.293C193.298 477.293 192.961 477.362 192.654 477.501C192.357 477.629 192.094 477.813 191.866 478.05C191.648 478.288 191.475 478.57 191.346 478.897C191.228 479.214 191.168 479.556 191.168 479.922C191.168 480.289 191.228 480.635 191.346 480.962C191.475 481.279 191.648 481.556 191.866 481.794C192.094 482.032 192.357 482.22 192.654 482.359C192.961 482.487 193.298 482.552 193.664 482.552ZM205.209 482.893C204.892 483.181 204.531 483.399 204.124 483.547C203.728 483.686 203.302 483.755 202.847 483.755C202.302 483.755 201.797 483.656 201.331 483.458C200.866 483.26 200.465 482.992 200.128 482.656C199.791 482.309 199.529 481.903 199.341 481.438C199.153 480.962 199.058 480.457 199.058 479.922C199.058 479.387 199.153 478.887 199.341 478.422C199.529 477.946 199.791 477.54 200.128 477.204C200.465 476.857 200.866 476.585 201.331 476.386C201.797 476.188 202.302 476.089 202.847 476.089C203.302 476.089 203.728 476.164 204.124 476.312C204.531 476.451 204.892 476.664 205.209 476.951V476.208H206.487V483.636H205.209V482.893ZM202.877 482.552C203.411 482.552 203.877 482.438 204.273 482.21C204.679 481.982 204.991 481.695 205.209 481.348V478.496C204.991 478.149 204.679 477.862 204.273 477.634C203.877 477.407 203.411 477.293 202.877 477.293C202.51 477.293 202.173 477.362 201.866 477.501C201.569 477.629 201.307 477.813 201.079 478.05C200.861 478.288 200.688 478.57 200.559 478.897C200.44 479.214 200.381 479.556 200.381 479.922C200.381 480.289 200.44 480.635 200.559 480.962C200.688 481.279 200.861 481.556 201.079 481.794C201.307 482.032 201.569 482.22 201.866 482.359C202.173 482.487 202.51 482.552 202.877 482.552ZM212.089 483.755C211.534 483.755 211.024 483.656 210.559 483.458C210.093 483.26 209.692 482.988 209.356 482.641C209.019 482.294 208.751 481.888 208.553 481.423C208.365 480.957 208.271 480.457 208.271 479.922C208.271 479.387 208.365 478.887 208.553 478.422C208.751 477.956 209.019 477.55 209.356 477.204C209.692 476.857 210.093 476.585 210.559 476.386C211.024 476.188 211.534 476.089 212.089 476.089C212.713 476.089 213.258 476.203 213.723 476.431C214.199 476.649 214.6 476.926 214.927 477.263L214.11 478.154C213.872 477.917 213.585 477.714 213.248 477.545C212.921 477.377 212.535 477.293 212.089 477.293C211.723 477.293 211.386 477.362 211.079 477.501C210.782 477.629 210.519 477.813 210.291 478.05C210.074 478.288 209.9 478.57 209.772 478.897C209.653 479.214 209.593 479.556 209.593 479.922C209.593 480.289 209.653 480.635 209.772 480.962C209.9 481.279 210.074 481.556 210.291 481.794C210.519 482.032 210.782 482.22 211.079 482.359C211.386 482.487 211.723 482.552 212.089 482.552C212.535 482.552 212.921 482.468 213.248 482.299C213.585 482.131 213.872 481.928 214.11 481.69L214.927 482.581C214.6 482.918 214.199 483.2 213.723 483.428C213.258 483.646 212.713 483.755 212.089 483.755ZM216.625 473.088H217.903V477.055C218.19 476.698 218.536 476.451 218.943 476.312C219.349 476.164 219.77 476.089 220.205 476.089C220.621 476.089 221.003 476.164 221.349 476.312C221.706 476.451 222.008 476.649 222.255 476.906C222.513 477.164 222.711 477.481 222.85 477.857C222.998 478.234 223.073 478.65 223.073 479.105V483.636H221.795V479.179C221.795 478.635 221.627 478.184 221.29 477.827C220.963 477.471 220.507 477.293 219.923 477.293C219.398 477.293 218.962 477.431 218.616 477.709C218.279 477.976 218.041 478.352 217.903 478.838V483.636H216.625V473.088Z" fill="white"/>
<path d="M257.871 404.426C262.486 404.426 266.228 408.168 266.228 412.783C266.228 417.398 262.486 421.139 257.871 421.139C253.256 421.139 249.515 417.398 249.515 412.783C249.515 408.168 253.256 404.426 257.871 404.426Z" stroke="#C7125C" stroke-width="1.85702"/>
<circle cx="257.871" cy="412.783" r="3.71404" fill="#C7125C"/>
<path d="M285.714 404.148C285.714 397.635 290.993 392.355 297.506 392.355H455.91C462.422 392.355 467.702 397.635 467.702 404.148V500.128C467.702 506.641 462.422 511.92 455.91 511.92H297.506C290.993 511.92 285.714 506.641 285.714 500.128V404.148Z" fill="#0F0F0F"/>
<path d="M297.506 393.105H455.909C462.008 393.105 466.952 398.049 466.952 404.147V500.128C466.952 506.226 462.008 511.171 455.909 511.171H297.506C291.408 511.171 286.464 506.226 286.464 500.128V404.147C286.464 398.24 291.103 393.416 296.938 393.12L297.506 393.105Z" stroke="white" stroke-opacity="0.2" stroke-width="1.5"/>
<path fill-rule="evenodd" clip-rule="evenodd" d="M375.193 424.057C376.07 423.157 377.441 422.955 378.54 423.564L393.421 431.817V439.584C393.421 440.53 392.941 441.412 392.145 441.925L378.083 450.992C377.219 451.55 376.117 451.585 375.218 451.085L361.316 443.337C359.714 442.445 359.397 440.274 360.676 438.96L375.193 424.057Z" fill="#C7125C" fill-opacity="0.1"/>
<path d="M393.561 433.21V439.679C393.561 440.655 393.049 441.561 392.213 442.065L377.637 450.851" stroke="#C7125C" stroke-width="1.85702" stroke-linecap="round" stroke-linejoin="round"/>
<path fill-rule="evenodd" clip-rule="evenodd" d="M375.07 423.637C375.942 422.713 377.329 422.496 378.441 423.11L392.116 430.655C393.715 431.537 394.047 433.693 392.787 435.015L378.195 450.337C377.319 451.256 375.933 451.467 374.824 450.85L361.268 443.308C359.681 442.425 359.35 440.283 360.598 438.962L375.07 423.637Z" stroke="#C7125C" stroke-width="1.85702" stroke-linecap="round" stroke-linejoin="round"/>
<path d="M347.657 473.088H350.643C351.198 473.088 351.698 473.163 352.143 473.311C352.599 473.46 352.985 473.673 353.302 473.95C353.619 474.227 353.862 474.569 354.03 474.975C354.208 475.371 354.298 475.817 354.298 476.312C354.298 476.807 354.208 477.253 354.03 477.649C353.862 478.045 353.619 478.382 353.302 478.659C352.985 478.937 352.599 479.155 352.143 479.313C351.698 479.462 351.198 479.536 350.643 479.536H349.009V483.636H347.657V473.088ZM350.598 478.288C351.361 478.288 351.935 478.115 352.322 477.768C352.718 477.421 352.916 476.936 352.916 476.312C352.916 475.688 352.718 475.203 352.322 474.856C351.935 474.51 351.361 474.336 350.598 474.336H349.009V478.288H350.598ZM360.782 482.804C360.494 483.161 360.148 483.408 359.742 483.547C359.345 483.686 358.929 483.755 358.494 483.755C358.068 483.755 357.677 483.686 357.32 483.547C356.973 483.399 356.671 483.195 356.414 482.938C356.166 482.68 355.973 482.369 355.834 482.002C355.696 481.626 355.626 481.205 355.626 480.739V476.208H356.904V480.665C356.904 481.21 357.068 481.66 357.394 482.017C357.731 482.373 358.187 482.552 358.761 482.552C359.276 482.552 359.702 482.423 360.039 482.165C360.385 481.908 360.633 481.542 360.782 481.066V476.208H362.059V483.636H360.782V482.804ZM364.352 473.088H365.63V483.636H364.352V473.088ZM366.777 476.208H368.248V474.619L369.526 473.98V476.208H371.769L371.487 477.367H369.526V481.289C369.526 481.665 369.605 481.957 369.763 482.165C369.922 482.373 370.209 482.477 370.625 482.477H371.62V483.636H370.491C369.778 483.636 369.224 483.458 368.828 483.101C368.441 482.735 368.248 482.195 368.248 481.482V477.367H367.06L366.777 476.208ZM378.964 482.893C378.647 483.181 378.285 483.399 377.879 483.547C377.483 483.686 377.057 483.755 376.601 483.755C376.057 483.755 375.552 483.656 375.086 483.458C374.621 483.26 374.22 482.992 373.883 482.656C373.546 482.309 373.284 481.903 373.095 481.438C372.907 480.962 372.813 480.457 372.813 479.922C372.813 479.387 372.907 478.887 373.095 478.422C373.284 477.946 373.546 477.54 373.883 477.204C374.22 476.857 374.621 476.585 375.086 476.386C375.552 476.188 376.057 476.089 376.601 476.089C377.057 476.089 377.483 476.164 377.879 476.312C378.285 476.451 378.647 476.664 378.964 476.951V473.088H380.241V483.636H378.964V482.893ZM376.631 482.552C377.166 482.552 377.632 482.438 378.028 482.21C378.434 481.982 378.746 481.695 378.964 481.348V478.496C378.746 478.149 378.434 477.862 378.028 477.634C377.632 477.407 377.166 477.293 376.631 477.293C376.265 477.293 375.928 477.362 375.621 477.501C375.324 477.629 375.061 477.813 374.834 478.05C374.616 478.288 374.442 478.57 374.314 478.897C374.195 479.214 374.135 479.556 374.135 479.922C374.135 480.289 374.195 480.635 374.314 480.962C374.442 481.279 374.616 481.556 374.834 481.794C375.061 482.032 375.324 482.22 375.621 482.359C375.928 482.487 376.265 482.552 376.631 482.552ZM388.176 482.893C387.859 483.181 387.498 483.399 387.092 483.547C386.695 483.686 386.27 483.755 385.814 483.755C385.269 483.755 384.764 483.656 384.299 483.458C383.833 483.26 383.432 482.992 383.095 482.656C382.759 482.309 382.496 481.903 382.308 481.438C382.12 480.962 382.026 480.457 382.026 479.922C382.026 479.387 382.12 478.887 382.308 478.422C382.496 477.946 382.759 477.54 383.095 477.204C383.432 476.857 383.833 476.585 384.299 476.386C384.764 476.188 385.269 476.089 385.814 476.089C386.27 476.089 386.695 476.164 387.092 476.312C387.498 476.451 387.859 476.664 388.176 476.951V476.208H389.454V483.636H388.176V482.893ZM385.844 482.552C386.379 482.552 386.844 482.438 387.24 482.21C387.646 481.982 387.958 481.695 388.176 481.348V478.496C387.958 478.149 387.646 477.862 387.24 477.634C386.844 477.407 386.379 477.293 385.844 477.293C385.477 477.293 385.141 477.362 384.834 477.501C384.536 477.629 384.274 477.813 384.046 478.05C383.828 478.288 383.655 478.57 383.526 478.897C383.407 479.214 383.348 479.556 383.348 479.922C383.348 480.289 383.407 480.635 383.526 480.962C383.655 481.279 383.828 481.556 384.046 481.794C384.274 482.032 384.536 482.22 384.834 482.359C385.141 482.487 385.477 482.552 385.844 482.552ZM395.056 483.755C394.502 483.755 393.992 483.656 393.526 483.458C393.061 483.26 392.66 482.988 392.323 482.641C391.986 482.294 391.719 481.888 391.521 481.423C391.332 480.957 391.238 480.457 391.238 479.922C391.238 479.387 391.332 478.887 391.521 478.422C391.719 477.956 391.986 477.55 392.323 477.204C392.66 476.857 393.061 476.585 393.526 476.386C393.992 476.188 394.502 476.089 395.056 476.089C395.68 476.089 396.225 476.203 396.69 476.431C397.166 476.649 397.567 476.926 397.894 477.263L397.077 478.154C396.839 477.917 396.552 477.714 396.215 477.545C395.888 477.377 395.502 477.293 395.056 477.293C394.69 477.293 394.353 477.362 394.046 477.501C393.749 477.629 393.487 477.813 393.259 478.05C393.041 478.288 392.867 478.57 392.739 478.897C392.62 479.214 392.56 479.556 392.56 479.922C392.56 480.289 392.62 480.635 392.739 480.962C392.867 481.279 393.041 481.556 393.259 481.794C393.487 482.032 393.749 482.22 394.046 482.359C394.353 482.487 394.69 482.552 395.056 482.552C395.502 482.552 395.888 482.468 396.215 482.299C396.552 482.131 396.839 481.928 397.077 481.69L397.894 482.581C397.567 482.918 397.166 483.2 396.69 483.428C396.225 483.646 395.68 483.755 395.056 483.755ZM399.592 473.088H400.87V477.055C401.157 476.698 401.504 476.451 401.91 476.312C402.316 476.164 402.737 476.089 403.173 476.089C403.588 476.089 403.97 476.164 404.316 476.312C404.673 476.451 404.975 476.649 405.223 476.906C405.48 477.164 405.678 477.481 405.817 477.857C405.965 478.234 406.04 478.65 406.04 479.105V483.636H404.762V479.179C404.762 478.635 404.594 478.184 404.257 477.827C403.93 477.471 403.475 477.293 402.89 477.293C402.365 477.293 401.93 477.431 401.583 477.709C401.246 477.976 401.008 478.352 400.87 478.838V483.636H399.592V473.088Z" fill="white"/>
<path d="M438.002 412.783C438.002 407.655 442.159 403.498 447.287 403.498V403.498C452.415 403.498 456.572 407.655 456.572 412.783V412.783C456.572 417.911 452.415 422.068 447.287 422.068V422.068C442.159 422.068 438.002 417.911 438.002 412.783V412.783Z" fill="#0F0F0F"/>
<path d="M447.287 404.426C451.902 404.426 455.644 408.168 455.644 412.783C455.644 417.398 451.902 421.139 447.287 421.139C442.672 421.139 438.931 417.398 438.931 412.783C438.931 408.168 442.672 404.426 447.287 404.426Z" stroke="white" stroke-opacity="0.2" stroke-width="1.85702"/>
<g clip-path="url(#clip4_224_5217)">
<path d="M96.2979 568.062C96.2979 554.729 107.106 543.92 120.439 543.92H443.56C456.893 543.92 467.702 554.729 467.702 568.062V568.062C467.702 581.394 456.893 592.203 443.56 592.203H120.439C107.106 592.203 96.2979 581.394 96.2979 568.062V568.062Z" fill="#C7125C"/>
<path d="M260.162 562.55H261.93L264.01 568.626L266.625 562.431L269.239 568.626L271.319 562.55H273.102L269.462 573.216L266.625 566.382L263.787 573.216L260.162 562.55ZM276.642 573.216C276.087 573.216 275.577 573.117 275.111 572.919C274.646 572.721 274.24 572.454 273.893 572.117C273.556 571.77 273.289 571.364 273.091 570.899C272.903 570.433 272.809 569.928 272.809 569.383C272.809 568.839 272.903 568.334 273.091 567.868C273.289 567.403 273.556 567.001 273.893 566.665C274.24 566.318 274.641 566.046 275.096 565.848C275.562 565.65 276.067 565.55 276.612 565.55C277.127 565.55 277.597 565.64 278.023 565.818C278.449 565.996 278.815 566.249 279.122 566.576C279.43 566.902 279.672 567.304 279.85 567.779C280.029 568.254 280.133 568.789 280.162 569.383V569.829H274.502C274.581 570.364 274.814 570.795 275.2 571.122C275.597 571.438 276.077 571.597 276.642 571.597C277.087 571.597 277.469 571.513 277.785 571.344C278.112 571.166 278.375 570.968 278.573 570.75L279.672 571.924C279.355 572.3 278.934 572.612 278.409 572.86C277.884 573.097 277.295 573.216 276.642 573.216ZM276.493 567.051C276.047 567.051 275.646 567.185 275.29 567.452C274.933 567.719 274.685 568.091 274.547 568.566H278.365C278.266 568.061 278.053 567.685 277.726 567.437C277.399 567.18 276.988 567.051 276.493 567.051ZM281.785 565.669H283.419V573.097H281.785V565.669ZM282.602 564.05C282.305 564.05 282.047 563.946 281.83 563.738C281.612 563.52 281.503 563.258 281.503 562.951C281.503 562.654 281.612 562.401 281.83 562.193C282.047 561.975 282.305 561.866 282.602 561.866C282.909 561.866 283.167 561.975 283.375 562.193C283.583 562.401 283.687 562.654 283.687 562.951C283.687 563.258 283.583 563.52 283.375 563.738C283.167 563.946 282.909 564.05 282.602 564.05ZM284.415 565.669H285.856V564.243L287.49 563.441V565.669H289.748L289.391 567.125H287.49V570.498C287.49 570.874 287.559 571.151 287.698 571.33C287.836 571.508 288.119 571.597 288.545 571.597H289.57V573.097H288.129C287.415 573.097 286.856 572.899 286.45 572.503C286.054 572.107 285.856 571.552 285.856 570.839V567.125H284.771L284.415 565.669ZM294.443 573.216C293.888 573.216 293.378 573.117 292.913 572.919C292.447 572.721 292.041 572.454 291.694 572.117C291.358 571.77 291.09 571.364 290.892 570.899C290.704 570.433 290.61 569.928 290.61 569.383C290.61 568.839 290.704 568.334 290.892 567.868C291.09 567.403 291.358 567.001 291.694 566.665C292.041 566.318 292.442 566.046 292.898 565.848C293.363 565.65 293.868 565.55 294.413 565.55C294.928 565.55 295.399 565.64 295.824 565.818C296.25 565.996 296.617 566.249 296.924 566.576C297.231 566.902 297.473 567.304 297.652 567.779C297.83 568.254 297.934 568.789 297.964 569.383V569.829H292.303C292.383 570.364 292.615 570.795 293.002 571.122C293.398 571.438 293.878 571.597 294.443 571.597C294.888 571.597 295.27 571.513 295.587 571.344C295.914 571.166 296.176 570.968 296.374 570.75L297.473 571.924C297.157 572.3 296.736 572.612 296.211 572.86C295.686 573.097 295.096 573.216 294.443 573.216ZM294.294 567.051C293.849 567.051 293.447 567.185 293.091 567.452C292.734 567.719 292.487 568.091 292.348 568.566H296.166C296.067 568.061 295.854 567.685 295.527 567.437C295.2 567.18 294.789 567.051 294.294 567.051ZM299.586 565.669H301.22V566.397C301.686 565.843 302.325 565.565 303.137 565.565C303.325 565.565 303.503 565.58 303.672 565.61V567.318C303.464 567.249 303.191 567.214 302.855 567.214C302.508 567.214 302.191 567.284 301.904 567.422C301.617 567.561 301.389 567.789 301.22 568.106V573.097H299.586V565.669Z" fill="white"/>
</g>
<defs>
<linearGradient id="paint0_linear_224_5217" x1="463.582" y1="231.794" x2="463.582" y2="202.082" gradientUnits="userSpaceOnUse">
<stop offset="0.1"/>
<stop offset="1" stop-opacity="0"/>
</linearGradient>
<clipPath id="clip0_224_5217">
<rect width="22.2842" height="22.2842" fill="white" transform="translate(329.044 95.7974)"/>
</clipPath>
<clipPath id="clip1_224_5217">
<rect x="96.2979" y="150.082" width="371.404" height="51.9965" rx="11.14" fill="white"/>
</clipPath>
<clipPath id="clip2_224_5217">
<rect x="96.2979" y="150.082" width="371.404" height="51.9965" rx="11.1421" fill="white"/>
</clipPath>
<clipPath id="clip3_224_5217">
<rect width="319.407" height="51.9965" fill="white" transform="translate(148.294 150.082)"/>
</clipPath>
<clipPath id="clip4_224_5217">
<path d="M96.2979 568.062C96.2979 554.729 107.106 543.92 120.439 543.92H443.56C456.893 543.92 467.702 554.729 467.702 568.062V568.062C467.702 581.394 456.893 592.203 443.56 592.203H120.439C107.106 592.203 96.2979 581.394 96.2979 568.062V568.062Z" fill="white"/>
</clipPath>
</defs>
</svg>
