<svg width="56" height="56" viewBox="0 0 56 56" fill="none" xmlns="http://www.w3.org/2000/svg">
<rect width="56" height="56" rx="12" fill="white"/>
<path d="M42.6416 36.176C41.8736 36.176 41.223 35.9093 40.6896 35.376C40.1563 34.8427 39.8896 34.2027 39.8896 33.456C39.8896 32.7093 40.1563 32.0587 40.6896 31.504C41.223 30.9493 41.8736 30.672 42.6416 30.672C43.4096 30.672 44.0603 30.9493 44.5936 31.504C45.127 32.0587 45.3937 32.7093 45.3937 33.456C45.3937 34.2027 45.127 34.8427 44.5936 35.376C44.0603 35.9093 43.4096 36.176 42.6416 36.176Z" fill="#FF4E5F"/>
<path d="M10.6064 35.696V35.376L11.0544 35.248C11.4598 35.1413 11.7371 34.96 11.8864 34.704C12.0571 34.448 12.1531 34.1067 12.1744 33.68V23.664C12.1744 23.1947 12.0998 22.8533 11.9504 22.64C11.8011 22.4053 11.5131 22.2453 11.0864 22.16L10.6064 22.032V21.712L16.0784 19.856L16.3984 20.176L16.6544 22.352C17.3584 21.648 18.1584 21.0507 19.0544 20.56C19.9718 20.0693 20.9211 19.824 21.9024 19.824C22.9264 19.824 23.7478 20.0373 24.3664 20.464C24.9851 20.8693 25.4544 21.5093 25.7744 22.384C26.6064 21.5947 27.5024 20.976 28.4624 20.528C29.4438 20.0587 30.3931 19.824 31.3104 19.824C32.8251 19.824 33.9344 20.1867 34.6384 20.912C35.3638 21.6373 35.7264 22.7787 35.7264 24.336V33.712C35.7264 34.544 36.1104 35.0667 36.8784 35.28L37.2304 35.376V35.696H29.8384V35.376L30.1584 35.28C30.5638 35.152 30.8411 34.96 30.9904 34.704C31.1611 34.448 31.2464 34.1067 31.2464 33.68V23.888C31.2464 22.992 31.0864 22.384 30.7664 22.064C30.4464 21.7227 29.9344 21.552 29.2304 21.552C28.6758 21.552 28.1318 21.68 27.5984 21.936C27.0864 22.1707 26.5424 22.5333 25.9664 23.024C26.0731 23.3653 26.1371 23.7387 26.1584 24.144C26.2011 24.5493 26.2224 24.976 26.2224 25.424V33.712C26.2438 34.544 26.6278 35.0667 27.3744 35.28L27.6624 35.376V35.696H20.2384V35.376L20.6864 35.248C21.0918 35.12 21.3691 34.9387 21.5184 34.704C21.6891 34.448 21.7744 34.1067 21.7744 33.68V23.92C21.7744 23.0667 21.6144 22.4587 21.2944 22.096C20.9958 21.7333 20.4731 21.552 19.7264 21.552C19.2358 21.552 18.7451 21.68 18.2544 21.936C17.7638 22.1707 17.2518 22.5227 16.7184 22.992V33.712C16.7184 34.544 17.0918 35.0667 17.8384 35.28L18.1264 35.376V35.696H10.6064Z" fill="black"/>
</svg>
